<svg xmlns="http://www.w3.org/2000/svg" xmlns:xlink="http://www.w3.org/1999/xlink" width="500" zoomAndPan="magnify" viewBox="0 0 375 314.999992" height="420" preserveAspectRatio="xMidYMid meet" version="1.0"><defs><clipPath id="id1"><path d="M 0 13.296875 L 375 13.296875 L 375 156 L 0 156 Z M 0 13.296875 " clip-rule="nonzero"/></clipPath><clipPath id="id2"><path d="M 0 76 L 375 76 L 375 302.046875 L 0 302.046875 Z M 0 76 " clip-rule="nonzero"/></clipPath></defs><g clip-path="url(#id1)"><path fill="rgb(25.489807%, 61.178589%, 66.668701%)" d="M 187.5 155.273438 L 374.957031 42.660156 L 374.957031 42.171875 C 374.960938 41.226562 374.914062 40.28125 374.820312 39.339844 C 374.726562 38.398438 374.589844 37.464844 374.40625 36.539062 C 374.21875 35.609375 373.992188 34.695312 373.71875 33.789062 C 373.441406 32.882812 373.125 31.996094 372.761719 31.121094 C 372.402344 30.246094 372 29.394531 371.554688 28.558594 C 371.109375 27.726562 370.625 26.914062 370.097656 26.128906 C 369.574219 25.34375 369.011719 24.582031 368.414062 23.851562 C 367.8125 23.121094 367.179688 22.421875 366.511719 21.753906 C 365.84375 21.085938 365.144531 20.449219 364.414062 19.851562 C 363.683594 19.25 362.925781 18.6875 362.140625 18.160156 C 361.355469 17.636719 360.546875 17.152344 359.714844 16.703125 C 358.882812 16.257812 358.027344 15.855469 357.15625 15.492188 C 356.28125 15.132812 355.394531 14.8125 354.492188 14.539062 C 353.585938 14.265625 352.671875 14.035156 351.746094 13.851562 C 350.820312 13.664062 349.886719 13.527344 348.945312 13.433594 C 348.007812 13.34375 347.0625 13.296875 346.117188 13.296875 L 28.882812 13.296875 C 27.9375 13.296875 26.992188 13.34375 26.054688 13.433594 C 25.113281 13.527344 24.179688 13.664062 23.253906 13.851562 C 22.328125 14.035156 21.414062 14.265625 20.507812 14.539062 C 19.605469 14.8125 18.71875 15.132812 17.84375 15.492188 C 16.972656 15.855469 16.117188 16.257812 15.285156 16.703125 C 14.453125 17.152344 13.644531 17.636719 12.859375 18.160156 C 12.074219 18.6875 11.316406 19.25 10.585938 19.851562 C 9.855469 20.449219 9.15625 21.085938 8.488281 21.753906 C 7.820312 22.421875 7.1875 23.121094 6.585938 23.851562 C 5.988281 24.582031 5.425781 25.34375 4.902344 26.128906 C 4.375 26.914062 3.890625 27.726562 3.445312 28.558594 C 3 29.394531 2.597656 30.246094 2.234375 31.121094 C 1.875 31.996094 1.558594 32.882812 1.28125 33.789062 C 1.007812 34.695312 0.78125 35.609375 0.59375 36.539062 C 0.410156 37.464844 0.273438 38.398438 0.179688 39.339844 C 0.0859375 40.28125 0.0429688 41.226562 0.0429688 42.171875 L 0.0429688 42.660156 Z M 187.5 155.273438 " fill-opacity="1" fill-rule="nonzero"/></g><g clip-path="url(#id2)"><path fill="rgb(25.489807%, 61.178589%, 66.668701%)" d="M 194.925781 184.480469 C 193.804688 185.15625 192.613281 185.667969 191.351562 186.019531 C 190.09375 186.367188 188.808594 186.542969 187.5 186.542969 C 186.191406 186.542969 184.90625 186.367188 183.648438 186.019531 C 182.386719 185.667969 181.195312 185.15625 180.074219 184.480469 L 0.0429688 76.328125 L 0.0429688 273.171875 C 0.0429688 274.117188 0.0859375 275.058594 0.179688 276 C 0.273438 276.941406 0.410156 277.875 0.59375 278.804688 C 0.78125 279.730469 1.007812 280.648438 1.28125 281.550781 C 1.558594 282.457031 1.875 283.347656 2.234375 284.21875 C 2.597656 285.09375 3 285.949219 3.445312 286.78125 C 3.890625 287.617188 4.375 288.425781 4.902344 289.210938 C 5.425781 290 5.988281 290.757812 6.585938 291.488281 C 7.1875 292.21875 7.820312 292.917969 8.488281 293.589844 C 9.15625 294.257812 9.855469 294.890625 10.585938 295.492188 C 11.316406 296.089844 12.074219 296.652344 12.859375 297.179688 C 13.644531 297.703125 14.453125 298.191406 15.285156 298.636719 C 16.117188 299.082031 16.972656 299.484375 17.84375 299.847656 C 18.71875 300.210938 19.605469 300.527344 20.507812 300.800781 C 21.414062 301.078125 22.328125 301.304688 23.253906 301.492188 C 24.179688 301.675781 25.113281 301.8125 26.054688 301.90625 C 26.992188 302 27.9375 302.046875 28.882812 302.046875 L 346.117188 302.046875 C 347.0625 302.046875 348.007812 302 348.945312 301.90625 C 349.886719 301.8125 350.820312 301.675781 351.746094 301.492188 C 352.671875 301.304688 353.585938 301.078125 354.492188 300.800781 C 355.394531 300.527344 356.28125 300.210938 357.15625 299.847656 C 358.027344 299.484375 358.882812 299.082031 359.714844 298.636719 C 360.546875 298.191406 361.355469 297.703125 362.140625 297.179688 C 362.925781 296.652344 363.683594 296.089844 364.414062 295.492188 C 365.144531 294.890625 365.84375 294.257812 366.511719 293.589844 C 367.179688 292.917969 367.8125 292.21875 368.414062 291.488281 C 369.011719 290.757812 369.574219 290 370.097656 289.210938 C 370.625 288.425781 371.109375 287.617188 371.554688 286.78125 C 372 285.949219 372.402344 285.09375 372.761719 284.21875 C 373.125 283.347656 373.441406 282.457031 373.71875 281.550781 C 373.992188 280.648438 374.21875 279.730469 374.40625 278.804688 C 374.589844 277.875 374.726562 276.941406 374.820312 276 C 374.914062 275.058594 374.960938 274.117188 374.957031 273.171875 L 374.957031 76.328125 Z M 194.925781 184.480469 " fill-opacity="1" fill-rule="nonzero"/></g></svg>