<svg xmlns="http://www.w3.org/2000/svg" xmlns:xlink="http://www.w3.org/1999/xlink" width="400" zoomAndPan="magnify" viewBox="0 0 300 60" height="80" preserveAspectRatio="xMidYMid meet" version="1.0"><defs><g/><clipPath id="id1"><path d="M 0 0 L 71 0 L 71 60 L 0 60 Z M 0 0 " clip-rule="nonzero"/></clipPath><clipPath id="id2"><path d="M 66.859375 29.996094 L 68.421875 28.335938 C 71.222656 25.363281 71.222656 20.527344 68.421875 17.554688 L 54.097656 2.335938 C 52.710938 0.859375 50.855469 0.046875 48.878906 0.046875 C 46.902344 0.0507812 45.046875 0.859375 43.660156 2.335938 L 42.242188 3.839844 L 40.824219 2.335938 C 39.4375 0.859375 37.582031 0.046875 35.605469 0.046875 C 33.625 0.046875 31.773438 0.859375 30.382812 2.335938 L 28.964844 3.84375 L 27.546875 2.335938 C 26.15625 0.859375 24.304688 0.046875 22.324219 0.046875 C 20.347656 0.046875 18.492188 0.859375 17.105469 2.335938 L 2.785156 17.550781 C -0.015625 20.527344 -0.0117188 25.363281 2.785156 28.335938 L 4.347656 29.996094 L 2.785156 31.65625 C -0.015625 34.628906 -0.015625 39.464844 2.785156 42.441406 L 17.105469 57.65625 C 18.492188 59.132812 20.347656 59.945312 22.324219 59.945312 C 24.304688 59.945312 26.15625 59.132812 27.542969 57.65625 L 28.964844 56.148438 L 30.382812 57.65625 C 31.773438 59.132812 33.625 59.945312 35.605469 59.945312 C 37.582031 59.945312 39.4375 59.132812 40.824219 57.65625 L 42.242188 56.152344 L 43.660156 57.65625 C 45.046875 59.132812 46.898438 59.945312 48.878906 59.945312 C 50.855469 59.945312 52.710938 59.132812 54.097656 57.65625 L 68.421875 42.441406 C 71.222656 39.464844 71.222656 34.628906 68.421875 31.65625 Z M 30.382812 49.074219 L 28.964844 50.578125 L 9.59375 29.996094 L 19.277344 19.703125 L 28.964844 9.414062 L 30.382812 10.921875 C 30.582031 11.128906 30.789062 11.324219 31.007812 11.503906 C 31.359375 11.804688 31.730469 12.070312 32.125 12.292969 C 32.125 12.292969 32.125 12.292969 32.128906 12.292969 C 32.546875 12.53125 32.992188 12.726562 33.449219 12.871094 C 33.453125 12.875 33.460938 12.875 33.464844 12.875 C 33.921875 13.019531 34.390625 13.121094 34.867188 13.167969 C 34.992188 13.179688 35.117188 13.179688 35.238281 13.1875 C 35.359375 13.195312 35.480469 13.207031 35.601562 13.207031 C 36.097656 13.207031 36.585938 13.15625 37.058594 13.058594 C 38.480469 12.757812 39.78125 12.027344 40.824219 10.917969 L 42.132812 9.527344 L 42.242188 9.414062 L 61.617188 29.996094 L 42.242188 50.582031 L 40.824219 49.074219 C 39.433594 47.597656 37.582031 46.785156 35.605469 46.785156 C 35.601562 46.785156 35.601562 46.785156 35.601562 46.785156 C 33.625 46.785156 31.773438 47.597656 30.382812 49.074219 Z M 46.425781 4.964844 C 47.085938 4.261719 47.957031 3.875 48.878906 3.875 C 49.796875 3.875 50.667969 4.261719 51.332031 4.964844 L 65.65625 20.183594 C 67.089844 21.707031 67.089844 24.183594 65.65625 25.707031 L 64.238281 27.210938 L 44.863281 6.625 Z M 33.152344 4.964844 C 33.8125 4.261719 34.683594 3.875 35.605469 3.875 C 36.523438 3.875 37.394531 4.261719 38.054688 4.964844 L 39.621094 6.625 L 38.054688 8.289062 C 37.640625 8.726562 37.148438 9.042969 36.609375 9.21875 C 36.285156 9.324219 35.949219 9.378906 35.605469 9.378906 C 34.683594 9.378906 33.8125 8.992188 33.152344 8.289062 L 31.589844 6.628906 Z M 5.554688 25.703125 C 4.121094 24.183594 4.121094 21.703125 5.550781 20.183594 L 19.875 4.964844 C 20.535156 4.261719 21.40625 3.875 22.324219 3.875 C 23.246094 3.875 24.117188 4.261719 24.777344 4.964844 L 26.34375 6.628906 L 16.65625 16.917969 L 6.96875 27.210938 Z M 22.324219 56.117188 C 21.40625 56.117188 20.535156 55.730469 19.875 55.027344 L 5.550781 39.808594 C 4.121094 38.285156 4.121094 35.808594 5.550781 34.285156 L 6.96875 32.78125 L 26.34375 53.363281 L 24.777344 55.027344 C 24.117188 55.730469 23.246094 56.117188 22.324219 56.117188 Z M 35.605469 56.117188 C 34.683594 56.117188 33.8125 55.730469 33.152344 55.027344 L 31.585938 53.363281 L 33.152344 51.703125 C 33.8125 51 34.683594 50.613281 35.605469 50.613281 C 36.523438 50.613281 37.394531 51 38.054688 51.703125 L 39.621094 53.367188 L 38.054688 55.027344 C 37.394531 55.730469 36.523438 56.117188 35.605469 56.117188 Z M 65.65625 39.808594 L 51.332031 55.027344 C 50.667969 55.730469 49.796875 56.117188 48.878906 56.117188 C 47.957031 56.117188 47.085938 55.730469 46.425781 55.027344 L 44.863281 53.367188 L 64.238281 32.78125 L 65.65625 34.285156 C 67.089844 35.808594 67.089844 38.289062 65.65625 39.808594 Z M 65.65625 39.808594 " clip-rule="nonzero"/></clipPath><linearGradient x1="-1.8" gradientTransform="matrix(0.381016, 0, 0, 0.382771, 0.685829, 0.048189)" y1="78.239998" x2="185.125979" gradientUnits="userSpaceOnUse" y2="78.239998" xlink:type="simple" xlink:actuate="onLoad" id="id3" xlink:show="other"><stop stop-opacity="1" stop-color="rgb(8.599854%, 8.198547%, 7.798767%)" offset="0"/><stop stop-opacity="1" stop-color="rgb(8.599854%, 8.198547%, 7.798767%)" offset="0.0078125"/><stop stop-opacity="1" stop-color="rgb(8.650208%, 8.39386%, 8.009338%)" offset="0.0117188"/><stop stop-opacity="1" stop-color="rgb(8.700562%, 8.590698%, 8.221436%)" offset="0.015625"/><stop stop-opacity="1" stop-color="rgb(8.766174%, 8.84552%, 8.496094%)" offset="0.0195312"/><stop stop-opacity="1" stop-color="rgb(8.831787%, 9.100342%, 8.772278%)" offset="0.0234375"/><stop stop-opacity="1" stop-color="rgb(8.8974%, 9.355164%, 9.046936%)" offset="0.0273438"/><stop stop-opacity="1" stop-color="rgb(8.963013%, 9.609985%, 9.32312%)" offset="0.03125"/><stop stop-opacity="1" stop-color="rgb(9.028625%, 9.864807%, 9.597778%)" offset="0.0351563"/><stop stop-opacity="1" stop-color="rgb(9.094238%, 10.119629%, 9.873962%)" offset="0.0390625"/><stop stop-opacity="1" stop-color="rgb(9.159851%, 10.374451%, 10.148621%)" offset="0.0429688"/><stop stop-opacity="1" stop-color="rgb(9.225464%, 10.630798%, 10.423279%)" offset="0.046875"/><stop stop-opacity="1" stop-color="rgb(9.291077%, 10.88562%, 10.697937%)" offset="0.0507813"/><stop stop-opacity="1" stop-color="rgb(9.356689%, 11.140442%, 10.974121%)" offset="0.0546875"/><stop stop-opacity="1" stop-color="rgb(9.422302%, 11.395264%, 11.248779%)" offset="0.0585938"/><stop stop-opacity="1" stop-color="rgb(9.489441%, 11.650085%, 11.524963%)" offset="0.0625"/><stop stop-opacity="1" stop-color="rgb(9.555054%, 11.904907%, 11.799622%)" offset="0.0664063"/><stop stop-opacity="1" stop-color="rgb(9.620667%, 12.159729%, 12.075806%)" offset="0.0703125"/><stop stop-opacity="1" stop-color="rgb(9.686279%, 12.414551%, 12.350464%)" offset="0.0742188"/><stop stop-opacity="1" stop-color="rgb(9.751892%, 12.669373%, 12.626648%)" offset="0.078125"/><stop stop-opacity="1" stop-color="rgb(9.817505%, 12.924194%, 12.901306%)" offset="0.0820312"/><stop stop-opacity="1" stop-color="rgb(9.883118%, 13.180542%, 13.175964%)" offset="0.0859375"/><stop stop-opacity="1" stop-color="rgb(9.94873%, 13.435364%, 13.450623%)" offset="0.0898438"/><stop stop-opacity="1" stop-color="rgb(10.014343%, 13.690186%, 13.726807%)" offset="0.09375"/><stop stop-opacity="1" stop-color="rgb(10.079956%, 13.945007%, 14.001465%)" offset="0.0976562"/><stop stop-opacity="1" stop-color="rgb(10.145569%, 14.199829%, 14.277649%)" offset="0.101563"/><stop stop-opacity="1" stop-color="rgb(10.211182%, 14.454651%, 14.552307%)" offset="0.105469"/><stop stop-opacity="1" stop-color="rgb(10.27832%, 14.709473%, 14.828491%)" offset="0.109375"/><stop stop-opacity="1" stop-color="rgb(10.343933%, 14.964294%, 15.103149%)" offset="0.113281"/><stop stop-opacity="1" stop-color="rgb(10.409546%, 15.219116%, 15.379333%)" offset="0.117188"/><stop stop-opacity="1" stop-color="rgb(10.475159%, 15.473938%, 15.653992%)" offset="0.121094"/><stop stop-opacity="1" stop-color="rgb(10.540771%, 15.72876%, 15.930176%)" offset="0.125"/><stop stop-opacity="1" stop-color="rgb(10.606384%, 15.983582%, 16.204834%)" offset="0.128906"/><stop stop-opacity="1" stop-color="rgb(10.671997%, 16.239929%, 16.479492%)" offset="0.132813"/><stop stop-opacity="1" stop-color="rgb(10.73761%, 16.494751%, 16.75415%)" offset="0.136719"/><stop stop-opacity="1" stop-color="rgb(10.803223%, 16.749573%, 17.030334%)" offset="0.140625"/><stop stop-opacity="1" stop-color="rgb(10.868835%, 17.004395%, 17.304993%)" offset="0.144531"/><stop stop-opacity="1" stop-color="rgb(10.934448%, 17.259216%, 17.581177%)" offset="0.148438"/><stop stop-opacity="1" stop-color="rgb(11.000061%, 17.514038%, 17.855835%)" offset="0.152344"/><stop stop-opacity="1" stop-color="rgb(11.0672%, 17.76886%, 18.132019%)" offset="0.15625"/><stop stop-opacity="1" stop-color="rgb(11.132812%, 18.023682%, 18.406677%)" offset="0.160156"/><stop stop-opacity="1" stop-color="rgb(11.198425%, 18.278503%, 18.682861%)" offset="0.164062"/><stop stop-opacity="1" stop-color="rgb(11.264038%, 18.533325%, 18.95752%)" offset="0.167969"/><stop stop-opacity="1" stop-color="rgb(11.329651%, 18.789673%, 19.232178%)" offset="0.171875"/><stop stop-opacity="1" stop-color="rgb(11.395264%, 19.044495%, 19.506836%)" offset="0.175781"/><stop stop-opacity="1" stop-color="rgb(11.460876%, 19.299316%, 19.78302%)" offset="0.179688"/><stop stop-opacity="1" stop-color="rgb(11.526489%, 19.554138%, 20.057678%)" offset="0.183594"/><stop stop-opacity="1" stop-color="rgb(11.592102%, 19.80896%, 20.333862%)" offset="0.1875"/><stop stop-opacity="1" stop-color="rgb(11.657715%, 20.063782%, 20.608521%)" offset="0.191406"/><stop stop-opacity="1" stop-color="rgb(11.723328%, 20.318604%, 20.884705%)" offset="0.195312"/><stop stop-opacity="1" stop-color="rgb(11.78894%, 20.573425%, 21.159363%)" offset="0.199219"/><stop stop-opacity="1" stop-color="rgb(11.854553%, 20.828247%, 21.435547%)" offset="0.203125"/><stop stop-opacity="1" stop-color="rgb(11.920166%, 21.083069%, 21.710205%)" offset="0.207031"/><stop stop-opacity="1" stop-color="rgb(11.987305%, 21.337891%, 21.984863%)" offset="0.210938"/><stop stop-opacity="1" stop-color="rgb(12.052917%, 21.592712%, 22.259521%)" offset="0.214844"/><stop stop-opacity="1" stop-color="rgb(12.11853%, 21.84906%, 22.535706%)" offset="0.21875"/><stop stop-opacity="1" stop-color="rgb(12.184143%, 22.103882%, 22.810364%)" offset="0.222656"/><stop stop-opacity="1" stop-color="rgb(12.249756%, 22.358704%, 23.086548%)" offset="0.226563"/><stop stop-opacity="1" stop-color="rgb(12.315369%, 22.613525%, 23.361206%)" offset="0.230469"/><stop stop-opacity="1" stop-color="rgb(12.380981%, 22.868347%, 23.63739%)" offset="0.234375"/><stop stop-opacity="1" stop-color="rgb(12.446594%, 23.123169%, 23.912048%)" offset="0.238281"/><stop stop-opacity="1" stop-color="rgb(12.512207%, 23.377991%, 24.188232%)" offset="0.242188"/><stop stop-opacity="1" stop-color="rgb(12.57782%, 23.632812%, 24.462891%)" offset="0.246094"/><stop stop-opacity="1" stop-color="rgb(12.643433%, 23.887634%, 24.739075%)" offset="0.25"/><stop stop-opacity="1" stop-color="rgb(12.709045%, 24.142456%, 25.013733%)" offset="0.253906"/><stop stop-opacity="1" stop-color="rgb(12.776184%, 24.398804%, 25.288391%)" offset="0.257813"/><stop stop-opacity="1" stop-color="rgb(12.841797%, 24.653625%, 25.563049%)" offset="0.261719"/><stop stop-opacity="1" stop-color="rgb(12.90741%, 24.908447%, 25.839233%)" offset="0.265625"/><stop stop-opacity="1" stop-color="rgb(12.973022%, 25.163269%, 26.113892%)" offset="0.269531"/><stop stop-opacity="1" stop-color="rgb(13.038635%, 25.418091%, 26.390076%)" offset="0.273438"/><stop stop-opacity="1" stop-color="rgb(13.104248%, 25.672913%, 26.664734%)" offset="0.277344"/><stop stop-opacity="1" stop-color="rgb(13.169861%, 25.927734%, 26.940918%)" offset="0.28125"/><stop stop-opacity="1" stop-color="rgb(13.235474%, 26.182556%, 27.215576%)" offset="0.285156"/><stop stop-opacity="1" stop-color="rgb(13.301086%, 26.437378%, 27.49176%)" offset="0.289063"/><stop stop-opacity="1" stop-color="rgb(13.366699%, 26.6922%, 27.766418%)" offset="0.292969"/><stop stop-opacity="1" stop-color="rgb(13.432312%, 26.947021%, 28.041077%)" offset="0.296875"/><stop stop-opacity="1" stop-color="rgb(13.497925%, 27.201843%, 28.315735%)" offset="0.300781"/><stop stop-opacity="1" stop-color="rgb(13.563538%, 27.458191%, 28.591919%)" offset="0.304688"/><stop stop-opacity="1" stop-color="rgb(13.62915%, 27.713013%, 28.866577%)" offset="0.308594"/><stop stop-opacity="1" stop-color="rgb(13.696289%, 27.967834%, 29.142761%)" offset="0.3125"/><stop stop-opacity="1" stop-color="rgb(13.761902%, 28.222656%, 29.417419%)" offset="0.316406"/><stop stop-opacity="1" stop-color="rgb(13.827515%, 28.477478%, 29.693604%)" offset="0.320313"/><stop stop-opacity="1" stop-color="rgb(13.893127%, 28.7323%, 29.968262%)" offset="0.324219"/><stop stop-opacity="1" stop-color="rgb(13.95874%, 28.987122%, 30.244446%)" offset="0.328125"/><stop stop-opacity="1" stop-color="rgb(14.024353%, 29.241943%, 30.519104%)" offset="0.332031"/><stop stop-opacity="1" stop-color="rgb(14.089966%, 29.496765%, 30.793762%)" offset="0.335938"/><stop stop-opacity="1" stop-color="rgb(14.155579%, 29.751587%, 31.06842%)" offset="0.339844"/><stop stop-opacity="1" stop-color="rgb(14.221191%, 30.006409%, 31.344604%)" offset="0.34375"/><stop stop-opacity="1" stop-color="rgb(14.286804%, 30.26123%, 31.619263%)" offset="0.347656"/><stop stop-opacity="1" stop-color="rgb(14.352417%, 30.517578%, 31.895447%)" offset="0.351563"/><stop stop-opacity="1" stop-color="rgb(14.41803%, 30.7724%, 32.170105%)" offset="0.355469"/><stop stop-opacity="1" stop-color="rgb(14.485168%, 31.027222%, 32.446289%)" offset="0.359375"/><stop stop-opacity="1" stop-color="rgb(14.550781%, 31.282043%, 32.720947%)" offset="0.363281"/><stop stop-opacity="1" stop-color="rgb(14.616394%, 31.536865%, 32.997131%)" offset="0.367188"/><stop stop-opacity="1" stop-color="rgb(14.682007%, 31.791687%, 33.27179%)" offset="0.371094"/><stop stop-opacity="1" stop-color="rgb(14.74762%, 32.046509%, 33.546448%)" offset="0.375"/><stop stop-opacity="1" stop-color="rgb(14.813232%, 32.301331%, 33.821106%)" offset="0.378906"/><stop stop-opacity="1" stop-color="rgb(14.878845%, 32.556152%, 34.09729%)" offset="0.382813"/><stop stop-opacity="1" stop-color="rgb(14.944458%, 32.810974%, 34.371948%)" offset="0.386719"/><stop stop-opacity="1" stop-color="rgb(15.010071%, 33.067322%, 34.648132%)" offset="0.390625"/><stop stop-opacity="1" stop-color="rgb(15.075684%, 33.322144%, 34.922791%)" offset="0.394531"/><stop stop-opacity="1" stop-color="rgb(15.141296%, 33.576965%, 35.198975%)" offset="0.398438"/><stop stop-opacity="1" stop-color="rgb(15.206909%, 33.831787%, 35.473633%)" offset="0.402344"/><stop stop-opacity="1" stop-color="rgb(15.274048%, 34.086609%, 35.749817%)" offset="0.40625"/><stop stop-opacity="1" stop-color="rgb(15.339661%, 34.341431%, 36.024475%)" offset="0.410156"/><stop stop-opacity="1" stop-color="rgb(15.405273%, 34.596252%, 36.300659%)" offset="0.414063"/><stop stop-opacity="1" stop-color="rgb(15.470886%, 34.851074%, 36.575317%)" offset="0.417969"/><stop stop-opacity="1" stop-color="rgb(15.536499%, 35.105896%, 36.849976%)" offset="0.421875"/><stop stop-opacity="1" stop-color="rgb(15.602112%, 35.360718%, 37.124634%)" offset="0.425781"/><stop stop-opacity="1" stop-color="rgb(15.667725%, 35.61554%, 37.400818%)" offset="0.429688"/><stop stop-opacity="1" stop-color="rgb(15.733337%, 35.870361%, 37.675476%)" offset="0.433594"/><stop stop-opacity="1" stop-color="rgb(15.79895%, 36.126709%, 37.95166%)" offset="0.4375"/><stop stop-opacity="1" stop-color="rgb(15.864563%, 36.381531%, 38.226318%)" offset="0.441406"/><stop stop-opacity="1" stop-color="rgb(15.930176%, 36.636353%, 38.502502%)" offset="0.445313"/><stop stop-opacity="1" stop-color="rgb(15.995789%, 36.891174%, 38.777161%)" offset="0.449219"/><stop stop-opacity="1" stop-color="rgb(16.061401%, 37.145996%, 39.053345%)" offset="0.453125"/><stop stop-opacity="1" stop-color="rgb(16.127014%, 37.400818%, 39.328003%)" offset="0.457031"/><stop stop-opacity="1" stop-color="rgb(16.194153%, 37.65564%, 39.602661%)" offset="0.460938"/><stop stop-opacity="1" stop-color="rgb(16.259766%, 37.910461%, 39.877319%)" offset="0.464844"/><stop stop-opacity="1" stop-color="rgb(16.325378%, 38.165283%, 40.153503%)" offset="0.46875"/><stop stop-opacity="1" stop-color="rgb(16.390991%, 38.420105%, 40.428162%)" offset="0.472656"/><stop stop-opacity="1" stop-color="rgb(16.456604%, 38.676453%, 40.704346%)" offset="0.476563"/><stop stop-opacity="1" stop-color="rgb(16.522217%, 38.931274%, 40.979004%)" offset="0.480469"/><stop stop-opacity="1" stop-color="rgb(16.58783%, 39.186096%, 41.255188%)" offset="0.484375"/><stop stop-opacity="1" stop-color="rgb(16.653442%, 39.440918%, 41.529846%)" offset="0.488281"/><stop stop-opacity="1" stop-color="rgb(16.719055%, 39.69574%, 41.80603%)" offset="0.492188"/><stop stop-opacity="1" stop-color="rgb(16.784668%, 39.950562%, 42.080688%)" offset="0.496094"/><stop stop-opacity="1" stop-color="rgb(16.850281%, 40.205383%, 42.355347%)" offset="0.5"/><stop stop-opacity="1" stop-color="rgb(16.915894%, 40.460205%, 42.630005%)" offset="0.503906"/><stop stop-opacity="1" stop-color="rgb(16.983032%, 40.715027%, 42.906189%)" offset="0.507813"/><stop stop-opacity="1" stop-color="rgb(17.048645%, 40.969849%, 43.180847%)" offset="0.511719"/><stop stop-opacity="1" stop-color="rgb(17.114258%, 41.22467%, 43.457031%)" offset="0.515625"/><stop stop-opacity="1" stop-color="rgb(17.179871%, 41.479492%, 43.731689%)" offset="0.519531"/><stop stop-opacity="1" stop-color="rgb(17.245483%, 41.73584%, 44.007874%)" offset="0.523438"/><stop stop-opacity="1" stop-color="rgb(17.311096%, 41.990662%, 44.282532%)" offset="0.527344"/><stop stop-opacity="1" stop-color="rgb(17.376709%, 42.245483%, 44.558716%)" offset="0.53125"/><stop stop-opacity="1" stop-color="rgb(17.442322%, 42.500305%, 44.833374%)" offset="0.535156"/><stop stop-opacity="1" stop-color="rgb(17.507935%, 42.755127%, 45.108032%)" offset="0.539063"/><stop stop-opacity="1" stop-color="rgb(17.573547%, 43.009949%, 45.38269%)" offset="0.542969"/><stop stop-opacity="1" stop-color="rgb(17.63916%, 43.264771%, 45.658875%)" offset="0.546875"/><stop stop-opacity="1" stop-color="rgb(17.704773%, 43.519592%, 45.933533%)" offset="0.550781"/><stop stop-opacity="1" stop-color="rgb(17.770386%, 43.774414%, 46.209717%)" offset="0.554688"/><stop stop-opacity="1" stop-color="rgb(17.835999%, 44.029236%, 46.484375%)" offset="0.558594"/><stop stop-opacity="1" stop-color="rgb(17.903137%, 44.285583%, 46.760559%)" offset="0.5625"/><stop stop-opacity="1" stop-color="rgb(17.96875%, 44.540405%, 47.035217%)" offset="0.566406"/><stop stop-opacity="1" stop-color="rgb(18.034363%, 44.795227%, 47.311401%)" offset="0.570313"/><stop stop-opacity="1" stop-color="rgb(18.099976%, 45.050049%, 47.58606%)" offset="0.574219"/><stop stop-opacity="1" stop-color="rgb(18.165588%, 45.304871%, 47.862244%)" offset="0.578125"/><stop stop-opacity="1" stop-color="rgb(18.231201%, 45.559692%, 48.136902%)" offset="0.582031"/><stop stop-opacity="1" stop-color="rgb(18.296814%, 45.814514%, 48.41156%)" offset="0.585938"/><stop stop-opacity="1" stop-color="rgb(18.362427%, 46.069336%, 48.686218%)" offset="0.589844"/><stop stop-opacity="1" stop-color="rgb(18.42804%, 46.324158%, 48.962402%)" offset="0.59375"/><stop stop-opacity="1" stop-color="rgb(18.493652%, 46.578979%, 49.237061%)" offset="0.597656"/><stop stop-opacity="1" stop-color="rgb(18.559265%, 46.833801%, 49.513245%)" offset="0.601563"/><stop stop-opacity="1" stop-color="rgb(18.624878%, 47.088623%, 49.787903%)" offset="0.605469"/><stop stop-opacity="1" stop-color="rgb(18.692017%, 47.344971%, 50.064087%)" offset="0.609375"/><stop stop-opacity="1" stop-color="rgb(18.757629%, 47.599792%, 50.338745%)" offset="0.613281"/><stop stop-opacity="1" stop-color="rgb(18.823242%, 47.854614%, 50.614929%)" offset="0.617188"/><stop stop-opacity="1" stop-color="rgb(18.888855%, 48.109436%, 50.889587%)" offset="0.621094"/><stop stop-opacity="1" stop-color="rgb(18.954468%, 48.364258%, 51.164246%)" offset="0.625"/><stop stop-opacity="1" stop-color="rgb(19.020081%, 48.61908%, 51.438904%)" offset="0.628906"/><stop stop-opacity="1" stop-color="rgb(19.085693%, 48.873901%, 51.715088%)" offset="0.632813"/><stop stop-opacity="1" stop-color="rgb(19.151306%, 49.128723%, 51.989746%)" offset="0.636719"/><stop stop-opacity="1" stop-color="rgb(19.216919%, 49.383545%, 52.26593%)" offset="0.640625"/><stop stop-opacity="1" stop-color="rgb(19.282532%, 49.638367%, 52.540588%)" offset="0.644531"/><stop stop-opacity="1" stop-color="rgb(19.348145%, 49.894714%, 52.816772%)" offset="0.648438"/><stop stop-opacity="1" stop-color="rgb(19.413757%, 50.149536%, 53.091431%)" offset="0.652344"/><stop stop-opacity="1" stop-color="rgb(19.47937%, 50.404358%, 53.367615%)" offset="0.65625"/><stop stop-opacity="1" stop-color="rgb(19.544983%, 50.65918%, 53.642273%)" offset="0.660156"/><stop stop-opacity="1" stop-color="rgb(19.612122%, 50.914001%, 53.916931%)" offset="0.664063"/><stop stop-opacity="1" stop-color="rgb(19.677734%, 51.168823%, 54.191589%)" offset="0.667969"/><stop stop-opacity="1" stop-color="rgb(19.743347%, 51.423645%, 54.467773%)" offset="0.671875"/><stop stop-opacity="1" stop-color="rgb(19.80896%, 51.678467%, 54.742432%)" offset="0.675781"/><stop stop-opacity="1" stop-color="rgb(19.874573%, 51.933289%, 55.018616%)" offset="0.679688"/><stop stop-opacity="1" stop-color="rgb(19.940186%, 52.18811%, 55.293274%)" offset="0.683594"/><stop stop-opacity="1" stop-color="rgb(20.005798%, 52.442932%, 55.569458%)" offset="0.6875"/><stop stop-opacity="1" stop-color="rgb(20.071411%, 52.697754%, 55.844116%)" offset="0.691406"/><stop stop-opacity="1" stop-color="rgb(20.137024%, 52.954102%, 56.1203%)" offset="0.695313"/><stop stop-opacity="1" stop-color="rgb(20.202637%, 53.208923%, 56.394958%)" offset="0.699219"/><stop stop-opacity="1" stop-color="rgb(20.26825%, 53.463745%, 56.671143%)" offset="0.703125"/><stop stop-opacity="1" stop-color="rgb(20.333862%, 53.718567%, 56.945801%)" offset="0.707031"/><stop stop-opacity="1" stop-color="rgb(20.401001%, 53.973389%, 57.220459%)" offset="0.710938"/><stop stop-opacity="1" stop-color="rgb(20.466614%, 54.22821%, 57.495117%)" offset="0.714844"/><stop stop-opacity="1" stop-color="rgb(20.532227%, 54.483032%, 57.771301%)" offset="0.71875"/><stop stop-opacity="1" stop-color="rgb(20.597839%, 54.737854%, 58.045959%)" offset="0.722656"/><stop stop-opacity="1" stop-color="rgb(20.663452%, 54.992676%, 58.322144%)" offset="0.726563"/><stop stop-opacity="1" stop-color="rgb(20.729065%, 55.247498%, 58.596802%)" offset="0.730469"/><stop stop-opacity="1" stop-color="rgb(20.794678%, 55.502319%, 58.872986%)" offset="0.734375"/><stop stop-opacity="1" stop-color="rgb(20.860291%, 55.757141%, 59.147644%)" offset="0.738281"/><stop stop-opacity="1" stop-color="rgb(20.925903%, 56.013489%, 59.423828%)" offset="0.742188"/><stop stop-opacity="1" stop-color="rgb(20.991516%, 56.268311%, 59.698486%)" offset="0.746094"/><stop stop-opacity="1" stop-color="rgb(21.057129%, 56.523132%, 59.973145%)" offset="0.75"/><stop stop-opacity="1" stop-color="rgb(21.122742%, 56.777954%, 60.247803%)" offset="0.753906"/><stop stop-opacity="1" stop-color="rgb(21.18988%, 57.032776%, 60.523987%)" offset="0.757813"/><stop stop-opacity="1" stop-color="rgb(21.255493%, 57.287598%, 60.798645%)" offset="0.761719"/><stop stop-opacity="1" stop-color="rgb(21.321106%, 57.542419%, 61.074829%)" offset="0.765625"/><stop stop-opacity="1" stop-color="rgb(21.386719%, 57.797241%, 61.349487%)" offset="0.769531"/><stop stop-opacity="1" stop-color="rgb(21.452332%, 58.052063%, 61.625671%)" offset="0.773438"/><stop stop-opacity="1" stop-color="rgb(21.517944%, 58.306885%, 61.90033%)" offset="0.777344"/><stop stop-opacity="1" stop-color="rgb(21.583557%, 58.563232%, 62.176514%)" offset="0.78125"/><stop stop-opacity="1" stop-color="rgb(21.64917%, 58.818054%, 62.451172%)" offset="0.785156"/><stop stop-opacity="1" stop-color="rgb(21.714783%, 59.072876%, 62.72583%)" offset="0.789063"/><stop stop-opacity="1" stop-color="rgb(21.780396%, 59.327698%, 63.000488%)" offset="0.792969"/><stop stop-opacity="1" stop-color="rgb(21.846008%, 59.58252%, 63.276672%)" offset="0.796875"/><stop stop-opacity="1" stop-color="rgb(21.911621%, 59.837341%, 63.551331%)" offset="0.800781"/><stop stop-opacity="1" stop-color="rgb(21.977234%, 60.092163%, 63.827515%)" offset="0.804688"/><stop stop-opacity="1" stop-color="rgb(22.042847%, 60.346985%, 64.102173%)" offset="0.808594"/><stop stop-opacity="1" stop-color="rgb(22.109985%, 60.601807%, 64.378357%)" offset="0.8125"/><stop stop-opacity="1" stop-color="rgb(22.175598%, 60.856628%, 64.653015%)" offset="0.816406"/><stop stop-opacity="1" stop-color="rgb(22.241211%, 61.11145%, 64.929199%)" offset="0.820312"/><stop stop-opacity="1" stop-color="rgb(22.306824%, 61.366272%, 65.203857%)" offset="0.824219"/><stop stop-opacity="1" stop-color="rgb(22.372437%, 61.62262%, 65.478516%)" offset="0.828125"/><stop stop-opacity="1" stop-color="rgb(22.438049%, 61.877441%, 65.753174%)" offset="0.832031"/><stop stop-opacity="1" stop-color="rgb(22.503662%, 62.132263%, 66.029358%)" offset="0.835938"/><stop stop-opacity="1" stop-color="rgb(22.569275%, 62.387085%, 66.304016%)" offset="0.839844"/><stop stop-opacity="1" stop-color="rgb(22.634888%, 62.641907%, 66.5802%)" offset="0.84375"/><stop stop-opacity="1" stop-color="rgb(22.7005%, 62.896729%, 66.854858%)" offset="0.847656"/><stop stop-opacity="1" stop-color="rgb(22.766113%, 63.15155%, 67.131042%)" offset="0.851563"/><stop stop-opacity="1" stop-color="rgb(22.831726%, 63.406372%, 67.405701%)" offset="0.855469"/><stop stop-opacity="1" stop-color="rgb(22.898865%, 63.661194%, 67.681885%)" offset="0.859375"/><stop stop-opacity="1" stop-color="rgb(22.964478%, 63.916016%, 67.956543%)" offset="0.863281"/><stop stop-opacity="1" stop-color="rgb(23.03009%, 64.172363%, 68.232727%)" offset="0.867188"/><stop stop-opacity="1" stop-color="rgb(23.095703%, 64.427185%, 68.507385%)" offset="0.871094"/><stop stop-opacity="1" stop-color="rgb(23.161316%, 64.682007%, 68.782043%)" offset="0.875"/><stop stop-opacity="1" stop-color="rgb(23.226929%, 64.936829%, 69.056702%)" offset="0.878906"/><stop stop-opacity="1" stop-color="rgb(23.292542%, 65.19165%, 69.332886%)" offset="0.882813"/><stop stop-opacity="1" stop-color="rgb(23.358154%, 65.446472%, 69.607544%)" offset="0.886719"/><stop stop-opacity="1" stop-color="rgb(23.423767%, 65.701294%, 69.883728%)" offset="0.890625"/><stop stop-opacity="1" stop-color="rgb(23.48938%, 65.956116%, 70.158386%)" offset="0.894531"/><stop stop-opacity="1" stop-color="rgb(23.554993%, 66.210938%, 70.43457%)" offset="0.898438"/><stop stop-opacity="1" stop-color="rgb(23.620605%, 66.465759%, 70.709229%)" offset="0.902344"/><stop stop-opacity="1" stop-color="rgb(23.686218%, 66.720581%, 70.985413%)" offset="0.90625"/><stop stop-opacity="1" stop-color="rgb(23.751831%, 66.975403%, 71.260071%)" offset="0.910156"/><stop stop-opacity="1" stop-color="rgb(23.81897%, 67.23175%, 71.534729%)" offset="0.914063"/><stop stop-opacity="1" stop-color="rgb(23.884583%, 67.486572%, 71.809387%)" offset="0.917969"/><stop stop-opacity="1" stop-color="rgb(23.950195%, 67.741394%, 72.085571%)" offset="0.921875"/><stop stop-opacity="1" stop-color="rgb(24.015808%, 67.996216%, 72.360229%)" offset="0.925781"/><stop stop-opacity="1" stop-color="rgb(24.081421%, 68.251038%, 72.636414%)" offset="0.929688"/><stop stop-opacity="1" stop-color="rgb(24.147034%, 68.505859%, 72.911072%)" offset="0.933594"/><stop stop-opacity="1" stop-color="rgb(24.212646%, 68.760681%, 73.187256%)" offset="0.9375"/><stop stop-opacity="1" stop-color="rgb(24.278259%, 69.015503%, 73.461914%)" offset="0.941406"/><stop stop-opacity="1" stop-color="rgb(24.343872%, 69.270325%, 73.738098%)" offset="0.945313"/><stop stop-opacity="1" stop-color="rgb(24.409485%, 69.525146%, 74.012756%)" offset="0.949219"/><stop stop-opacity="1" stop-color="rgb(24.475098%, 69.781494%, 74.287415%)" offset="0.953125"/><stop stop-opacity="1" stop-color="rgb(24.54071%, 70.036316%, 74.562073%)" offset="0.957031"/><stop stop-opacity="1" stop-color="rgb(24.607849%, 70.291138%, 74.838257%)" offset="0.960938"/><stop stop-opacity="1" stop-color="rgb(24.673462%, 70.545959%, 75.112915%)" offset="0.964844"/><stop stop-opacity="1" stop-color="rgb(24.739075%, 70.800781%, 75.389099%)" offset="0.96875"/><stop stop-opacity="1" stop-color="rgb(24.804688%, 71.055603%, 75.663757%)" offset="0.972656"/><stop stop-opacity="1" stop-color="rgb(24.8703%, 71.310425%, 75.939941%)" offset="0.976563"/><stop stop-opacity="1" stop-color="rgb(24.935913%, 71.565247%, 76.2146%)" offset="0.980469"/><stop stop-opacity="1" stop-color="rgb(25.001526%, 71.820068%, 76.490784%)" offset="0.984375"/><stop stop-opacity="1" stop-color="rgb(25.050354%, 72.009277%, 76.695251%)" offset="0.988281"/><stop stop-opacity="1" stop-color="rgb(25.099182%, 72.198486%, 76.899719%)" offset="0.992188"/><stop stop-opacity="1" stop-color="rgb(25.099182%, 72.198486%, 76.899719%)" offset="1"/></linearGradient></defs><g clip-path="url(#id1)"><g clip-path="url(#id2)"><path fill="url(#id3)" d="M 0 0.046875 L 0 59.945312 L 71.222656 59.945312 L 71.222656 0.046875 Z M 0 0.046875 " fill-rule="nonzero"/></g></g><g fill="rgb(12.548828%, 23.919678%, 25.099182%)" fill-opacity="1"><g transform="translate(80.197614, 23.911733)"><g><path d="M 5.925781 -9.863281 C 3.148438 -9.863281 0.617188 -8.378906 0.617188 -4.800781 C 0.617188 -0.679688 3.980469 0.292969 5.925781 0.292969 C 7.855469 0.292969 11.234375 -0.679688 11.234375 -4.800781 C 11.234375 -8.378906 8.6875 -9.863281 5.925781 -9.863281 Z M 5.925781 0.03125 C 4.183594 0.03125 1.742188 -0.742188 1.742188 -4.800781 C 1.742188 -8.796875 4.429688 -9.613281 5.925781 -9.613281 C 7.421875 -9.613281 10.109375 -8.796875 10.109375 -4.800781 C 10.109375 -0.742188 7.65625 0.03125 5.925781 0.03125 Z M 5.925781 0.03125 "/></g></g></g><g fill="rgb(12.548828%, 23.919678%, 25.099182%)" fill-opacity="1"><g transform="translate(100.485995, 23.911733)"><g><path d="M 10.570312 -9.863281 L 10.542969 -9.863281 L 6.203125 -1.652344 L 1.929688 -9.863281 L 1.882812 -9.863281 L 0.554688 0.015625 L 0.800781 0.015625 L 1.835938 -7.640625 L 5.679688 -0.246094 L 5.742188 -0.246094 L 9.707031 -7.761719 L 10.617188 0.015625 L 11.730469 0.015625 Z M 10.570312 -9.863281 "/></g></g></g><g fill="rgb(12.548828%, 23.919678%, 25.099182%)" fill-opacity="1"><g transform="translate(121.190787, 23.911733)"><g><path d="M 5.648438 -9.429688 L 5.648438 -9.675781 L 0.742188 -9.675781 L 0.742188 0.015625 L 5.648438 0.015625 L 5.648438 -0.230469 L 1.835938 -0.230469 L 1.835938 -4.921875 L 5.230469 -4.921875 L 5.230469 -5.171875 L 1.835938 -5.171875 L 1.835938 -9.429688 Z M 5.648438 -9.429688 "/></g></g></g><g fill="rgb(12.548828%, 23.919678%, 25.099182%)" fill-opacity="1"><g transform="translate(135.849848, 23.911733)"><g><path d="M 6.527344 -4.921875 L 6.527344 -4.660156 L 7.917969 -4.660156 L 7.917969 -0.324219 C 7.394531 -0.125 6.699219 0.03125 5.925781 0.03125 C 3.519531 0.03125 1.742188 -1.171875 1.742188 -4.800781 C 1.742188 -8.796875 4.289062 -9.613281 5.925781 -9.613281 C 7.746094 -9.613281 8.75 -9.183594 8.75 -9.183594 L 8.75 -9.492188 C 8.75 -9.492188 7.6875 -9.863281 5.925781 -9.863281 C 3.148438 -9.863281 0.617188 -8.378906 0.617188 -4.800781 C 0.617188 -0.679688 3.84375 0.292969 5.789062 0.292969 C 7.71875 0.292969 9.011719 -0.523438 9.011719 -0.523438 L 9.011719 -4.921875 Z M 6.527344 -4.921875 "/></g></g></g><g fill="rgb(12.548828%, 23.919678%, 25.099182%)" fill-opacity="1"><g transform="translate(153.979033, 23.911733)"><g><path d="M 8.070312 0.015625 L 9.261719 0.015625 L 5.015625 -9.863281 L 4.9375 -9.863281 L 0.539062 0.015625 L 0.878906 0.015625 L 2.625 -3.875 L 6.390625 -3.875 Z M 2.730469 -4.136719 L 4.539062 -8.195312 L 6.28125 -4.136719 Z M 2.730469 -4.136719 "/></g></g></g><g fill="rgb(12.548828%, 23.919678%, 25.099182%)" fill-opacity="1"><g transform="translate(172.139073, 23.911733)"><g/></g></g><g fill="rgb(12.548828%, 23.919678%, 25.099182%)" fill-opacity="1"><g transform="translate(184.34591, 23.911733)"><g><path d="M 8.75 -0.863281 C 8.75 -0.863281 7.71875 0.03125 5.925781 0.03125 C 4.199219 0.03125 1.742188 -0.742188 1.742188 -4.800781 C 1.742188 -8.796875 4.429688 -9.613281 5.925781 -9.613281 C 7.746094 -9.613281 8.75 -8.890625 8.75 -8.890625 L 8.75 -9.230469 C 8.75 -9.230469 7.6875 -9.863281 5.925781 -9.863281 C 3.148438 -9.863281 0.617188 -8.378906 0.617188 -4.800781 C 0.617188 -0.679688 3.84375 0.292969 5.789062 0.292969 C 7.71875 0.292969 8.75 -0.523438 8.75 -0.523438 Z M 8.75 -0.863281 "/></g></g></g><g fill="rgb(12.548828%, 23.919678%, 25.099182%)" fill-opacity="1"><g transform="translate(202.104954, 23.911733)"><g><path d="M 7.792969 -9.675781 L 7.792969 -3.703125 C 7.792969 -0.757812 6.296875 -0.109375 4.539062 -0.109375 C 1.929688 -0.109375 1.789062 -2.46875 1.789062 -3.566406 L 1.789062 -9.675781 L 0.695312 -9.675781 L 0.695312 -3.566406 C 0.695312 -0.417969 2.484375 0.292969 4.304688 0.292969 C 6.777344 0.292969 8.054688 -1.019531 8.054688 -3.566406 L 8.054688 -9.675781 Z M 7.792969 -9.675781 "/></g></g></g><g fill="rgb(12.548828%, 23.919678%, 25.099182%)" fill-opacity="1"><g transform="translate(219.262508, 23.911733)"><g><path d="M 0.386719 -0.710938 L 0.386719 -0.355469 C 0.386719 -0.355469 1.328125 0.402344 2.996094 0.402344 C 4.660156 0.402344 6.25 -0.757812 6.25 -2.46875 C 6.25 -5.925781 1.296875 -4.90625 1.296875 -7.71875 C 1.296875 -8.8125 2.050781 -9.707031 3.378906 -9.707031 C 4.691406 -9.707031 5.539062 -9.074219 5.539062 -9.074219 L 5.523438 -9.398438 C 5.523438 -9.398438 4.597656 -9.96875 3.363281 -9.96875 C 2.144531 -9.96875 0.433594 -9.230469 0.433594 -7.300781 C 0.433594 -3.84375 5.371094 -5.140625 5.371094 -2.082031 C 5.371094 -0.585938 4.230469 0.15625 2.996094 0.15625 C 1.667969 0.15625 0.925781 -0.292969 0.386719 -0.710938 Z M 0.386719 -0.710938 "/></g></g></g><g fill="rgb(12.548828%, 23.919678%, 25.099182%)" fill-opacity="1"><g transform="translate(234.47679, 23.911733)"><g><path d="M 7.578125 -9.675781 L 0.507812 -9.675781 L 0.507812 -9.429688 L 3.488281 -9.429688 L 3.488281 0.015625 L 4.597656 0.015625 L 4.597656 -9.429688 L 7.578125 -9.429688 Z M 7.578125 -9.675781 "/></g></g></g><g fill="rgb(12.548828%, 23.919678%, 25.099182%)" fill-opacity="1"><g transform="translate(250.924893, 23.911733)"><g><path d="M 5.925781 -9.863281 C 3.148438 -9.863281 0.617188 -8.378906 0.617188 -4.800781 C 0.617188 -0.679688 3.980469 0.292969 5.925781 0.292969 C 7.855469 0.292969 11.234375 -0.679688 11.234375 -4.800781 C 11.234375 -8.378906 8.6875 -9.863281 5.925781 -9.863281 Z M 5.925781 0.03125 C 4.183594 0.03125 1.742188 -0.742188 1.742188 -4.800781 C 1.742188 -8.796875 4.429688 -9.613281 5.925781 -9.613281 C 7.421875 -9.613281 10.109375 -8.796875 10.109375 -4.800781 C 10.109375 -0.742188 7.65625 0.03125 5.925781 0.03125 Z M 5.925781 0.03125 "/></g></g></g><g fill="rgb(12.548828%, 23.919678%, 25.099182%)" fill-opacity="1"><g transform="translate(271.21328, 23.911733)"><g><path d="M 10.570312 -9.863281 L 10.542969 -9.863281 L 6.203125 -1.652344 L 1.929688 -9.863281 L 1.882812 -9.863281 L 0.554688 0.015625 L 0.800781 0.015625 L 1.835938 -7.640625 L 5.679688 -0.246094 L 5.742188 -0.246094 L 9.707031 -7.761719 L 10.617188 0.015625 L 11.730469 0.015625 Z M 10.570312 -9.863281 "/></g></g></g><g fill="rgb(12.548828%, 23.919678%, 25.099182%)" fill-opacity="1"><g transform="translate(291.918066, 23.911733)"><g><path d="M 0.386719 -0.710938 L 0.386719 -0.355469 C 0.386719 -0.355469 1.328125 0.402344 2.996094 0.402344 C 4.660156 0.402344 6.25 -0.757812 6.25 -2.46875 C 6.25 -5.925781 1.296875 -4.90625 1.296875 -7.71875 C 1.296875 -8.8125 2.050781 -9.707031 3.378906 -9.707031 C 4.691406 -9.707031 5.539062 -9.074219 5.539062 -9.074219 L 5.523438 -9.398438 C 5.523438 -9.398438 4.597656 -9.96875 3.363281 -9.96875 C 2.144531 -9.96875 0.433594 -9.230469 0.433594 -7.300781 C 0.433594 -3.84375 5.371094 -5.140625 5.371094 -2.082031 C 5.371094 -0.585938 4.230469 0.15625 2.996094 0.15625 C 1.667969 0.15625 0.925781 -0.292969 0.386719 -0.710938 Z M 0.386719 -0.710938 "/></g></g></g><g fill="rgb(12.548828%, 23.919678%, 25.099182%)" fill-opacity="1"><g transform="translate(80.197614, 45.220668)"><g><path d="M 0.386719 -0.710938 L 0.386719 -0.355469 C 0.386719 -0.355469 1.328125 0.402344 2.996094 0.402344 C 4.660156 0.402344 6.25 -0.757812 6.25 -2.46875 C 6.25 -5.925781 1.296875 -4.90625 1.296875 -7.71875 C 1.296875 -8.8125 2.050781 -9.707031 3.378906 -9.707031 C 4.691406 -9.707031 5.539062 -9.074219 5.539062 -9.074219 L 5.523438 -9.398438 C 5.523438 -9.398438 4.597656 -9.96875 3.363281 -9.96875 C 2.144531 -9.96875 0.433594 -9.230469 0.433594 -7.300781 C 0.433594 -3.84375 5.371094 -5.140625 5.371094 -2.082031 C 5.371094 -0.585938 4.230469 0.15625 2.996094 0.15625 C 1.667969 0.15625 0.925781 -0.292969 0.386719 -0.710938 Z M 0.386719 -0.710938 "/></g></g></g><g fill="rgb(12.548828%, 23.919678%, 25.099182%)" fill-opacity="1"><g transform="translate(95.411901, 45.220668)"><g><path d="M 5.925781 -9.863281 C 3.148438 -9.863281 0.617188 -8.378906 0.617188 -4.800781 C 0.617188 -0.679688 3.980469 0.292969 5.925781 0.292969 C 7.855469 0.292969 11.234375 -0.679688 11.234375 -4.800781 C 11.234375 -8.378906 8.6875 -9.863281 5.925781 -9.863281 Z M 5.925781 0.03125 C 4.183594 0.03125 1.742188 -0.742188 1.742188 -4.800781 C 1.742188 -8.796875 4.429688 -9.613281 5.925781 -9.613281 C 7.421875 -9.613281 10.109375 -8.796875 10.109375 -4.800781 C 10.109375 -0.742188 7.65625 0.03125 5.925781 0.03125 Z M 5.925781 0.03125 "/></g></g></g><g fill="rgb(12.548828%, 23.919678%, 25.099182%)" fill-opacity="1"><g transform="translate(115.700282, 45.220668)"><g><path d="M 1.835938 -0.230469 L 1.835938 -9.675781 L 0.742188 -9.675781 L 0.742188 0.015625 L 5.695312 0.015625 L 5.695312 -0.230469 Z M 1.835938 -0.230469 "/></g></g></g><g fill="rgb(12.548828%, 23.919678%, 25.099182%)" fill-opacity="1"><g transform="translate(130.343921, 45.220668)"><g><path d="M 7.792969 -9.675781 L 7.792969 -3.703125 C 7.792969 -0.757812 6.296875 -0.109375 4.539062 -0.109375 C 1.929688 -0.109375 1.789062 -2.46875 1.789062 -3.566406 L 1.789062 -9.675781 L 0.695312 -9.675781 L 0.695312 -3.566406 C 0.695312 -0.417969 2.484375 0.292969 4.304688 0.292969 C 6.777344 0.292969 8.054688 -1.019531 8.054688 -3.566406 L 8.054688 -9.675781 Z M 7.792969 -9.675781 "/></g></g></g><g fill="rgb(12.548828%, 23.919678%, 25.099182%)" fill-opacity="1"><g transform="translate(147.50147, 45.220668)"><g><path d="M 7.578125 -9.675781 L 0.507812 -9.675781 L 0.507812 -9.429688 L 3.488281 -9.429688 L 3.488281 0.015625 L 4.597656 0.015625 L 4.597656 -9.429688 L 7.578125 -9.429688 Z M 7.578125 -9.675781 "/></g></g></g><g fill="rgb(12.548828%, 23.919678%, 25.099182%)" fill-opacity="1"><g transform="translate(163.94958, 45.220668)"><g><path d="M 0.894531 0.015625 L 1.992188 0.015625 L 1.992188 -9.675781 L 0.894531 -9.675781 Z M 0.894531 0.015625 "/></g></g></g><g fill="rgb(12.548828%, 23.919678%, 25.099182%)" fill-opacity="1"><g transform="translate(175.261898, 45.220668)"><g><path d="M 5.925781 -9.863281 C 3.148438 -9.863281 0.617188 -8.378906 0.617188 -4.800781 C 0.617188 -0.679688 3.980469 0.292969 5.925781 0.292969 C 7.855469 0.292969 11.234375 -0.679688 11.234375 -4.800781 C 11.234375 -8.378906 8.6875 -9.863281 5.925781 -9.863281 Z M 5.925781 0.03125 C 4.183594 0.03125 1.742188 -0.742188 1.742188 -4.800781 C 1.742188 -8.796875 4.429688 -9.613281 5.925781 -9.613281 C 7.421875 -9.613281 10.109375 -8.796875 10.109375 -4.800781 C 10.109375 -0.742188 7.65625 0.03125 5.925781 0.03125 Z M 5.925781 0.03125 "/></g></g></g><g fill="rgb(12.548828%, 23.919678%, 25.099182%)" fill-opacity="1"><g transform="translate(195.550285, 45.220668)"><g><path d="M 8.613281 -9.675781 L 8.363281 -9.675781 L 8.363281 -1.464844 L 0.773438 -9.863281 L 0.742188 -9.863281 L 0.742188 0.015625 L 0.988281 0.015625 L 0.988281 -8.101562 L 8.566406 0.292969 L 8.613281 0.292969 Z M 8.613281 -9.675781 "/></g></g></g><g fill="rgb(12.548828%, 23.919678%, 25.099182%)" fill-opacity="1"><g transform="translate(213.324739, 45.220668)"><g><path d="M 0.386719 -0.710938 L 0.386719 -0.355469 C 0.386719 -0.355469 1.328125 0.402344 2.996094 0.402344 C 4.660156 0.402344 6.25 -0.757812 6.25 -2.46875 C 6.25 -5.925781 1.296875 -4.90625 1.296875 -7.71875 C 1.296875 -8.8125 2.050781 -9.707031 3.378906 -9.707031 C 4.691406 -9.707031 5.539062 -9.074219 5.539062 -9.074219 L 5.523438 -9.398438 C 5.523438 -9.398438 4.597656 -9.96875 3.363281 -9.96875 C 2.144531 -9.96875 0.433594 -9.230469 0.433594 -7.300781 C 0.433594 -3.84375 5.371094 -5.140625 5.371094 -2.082031 C 5.371094 -0.585938 4.230469 0.15625 2.996094 0.15625 C 1.667969 0.15625 0.925781 -0.292969 0.386719 -0.710938 Z M 0.386719 -0.710938 "/></g></g></g></svg>