<svg xmlns="http://www.w3.org/2000/svg" xmlns:xlink="http://www.w3.org/1999/xlink" width="400" zoomAndPan="magnify" viewBox="0 0 300 60" height="80" preserveAspectRatio="xMidYMid meet" version="1.0"><defs><g/><clipPath id="id1"><path d="M 0 0 L 71 0 L 71 60 L 0 60 Z M 0 0 " clip-rule="nonzero"/></clipPath><clipPath id="id2"><path d="M 66.859375 29.996094 L 68.421875 28.335938 C 71.222656 25.363281 71.222656 20.527344 68.421875 17.554688 L 54.097656 2.335938 C 52.710938 0.859375 50.855469 0.046875 48.878906 0.046875 C 46.902344 0.0507812 45.046875 0.859375 43.660156 2.335938 L 42.242188 3.839844 L 40.824219 2.335938 C 39.4375 0.859375 37.582031 0.046875 35.605469 0.046875 C 33.625 0.046875 31.773438 0.859375 30.382812 2.335938 L 28.964844 3.84375 L 27.546875 2.335938 C 26.15625 0.859375 24.304688 0.046875 22.324219 0.046875 C 20.347656 0.046875 18.492188 0.859375 17.105469 2.335938 L 2.785156 17.550781 C -0.015625 20.527344 -0.0117188 25.363281 2.785156 28.335938 L 4.347656 29.996094 L 2.785156 31.65625 C -0.015625 34.628906 -0.015625 39.464844 2.785156 42.441406 L 17.105469 57.65625 C 18.492188 59.132812 20.347656 59.945312 22.324219 59.945312 C 24.304688 59.945312 26.15625 59.132812 27.542969 57.65625 L 28.964844 56.148438 L 30.382812 57.65625 C 31.773438 59.132812 33.625 59.945312 35.605469 59.945312 C 37.582031 59.945312 39.4375 59.132812 40.824219 57.65625 L 42.242188 56.152344 L 43.660156 57.65625 C 45.046875 59.132812 46.898438 59.945312 48.878906 59.945312 C 50.855469 59.945312 52.710938 59.132812 54.097656 57.65625 L 68.421875 42.441406 C 71.222656 39.464844 71.222656 34.628906 68.421875 31.65625 Z M 30.382812 49.074219 L 28.964844 50.578125 L 9.59375 29.996094 L 19.277344 19.703125 L 28.964844 9.414062 L 30.382812 10.921875 C 30.582031 11.128906 30.789062 11.324219 31.007812 11.503906 C 31.359375 11.804688 31.730469 12.070312 32.125 12.292969 C 32.125 12.292969 32.125 12.292969 32.128906 12.292969 C 32.546875 12.53125 32.992188 12.726562 33.449219 12.871094 C 33.453125 12.875 33.460938 12.875 33.464844 12.875 C 33.921875 13.019531 34.390625 13.121094 34.867188 13.167969 C 34.992188 13.179688 35.117188 13.179688 35.238281 13.1875 C 35.359375 13.195312 35.480469 13.207031 35.601562 13.207031 C 36.097656 13.207031 36.585938 13.15625 37.058594 13.058594 C 38.480469 12.757812 39.78125 12.027344 40.824219 10.917969 L 42.132812 9.527344 L 42.242188 9.414062 L 61.617188 29.996094 L 42.242188 50.582031 L 40.824219 49.074219 C 39.433594 47.597656 37.582031 46.785156 35.605469 46.785156 C 35.601562 46.785156 35.601562 46.785156 35.601562 46.785156 C 33.625 46.785156 31.773438 47.597656 30.382812 49.074219 Z M 46.425781 4.964844 C 47.085938 4.261719 47.957031 3.875 48.878906 3.875 C 49.796875 3.875 50.667969 4.261719 51.332031 4.964844 L 65.65625 20.183594 C 67.089844 21.707031 67.089844 24.183594 65.65625 25.707031 L 64.238281 27.210938 L 44.863281 6.625 Z M 33.152344 4.964844 C 33.8125 4.261719 34.683594 3.875 35.605469 3.875 C 36.523438 3.875 37.394531 4.261719 38.054688 4.964844 L 39.621094 6.625 L 38.054688 8.289062 C 37.640625 8.726562 37.148438 9.042969 36.609375 9.21875 C 36.285156 9.324219 35.949219 9.378906 35.605469 9.378906 C 34.683594 9.378906 33.8125 8.992188 33.152344 8.289062 L 31.589844 6.628906 Z M 5.554688 25.703125 C 4.121094 24.183594 4.121094 21.703125 5.550781 20.183594 L 19.875 4.964844 C 20.535156 4.261719 21.40625 3.875 22.324219 3.875 C 23.246094 3.875 24.117188 4.261719 24.777344 4.964844 L 26.34375 6.628906 L 16.65625 16.917969 L 6.96875 27.210938 Z M 22.324219 56.117188 C 21.40625 56.117188 20.535156 55.730469 19.875 55.027344 L 5.550781 39.808594 C 4.121094 38.285156 4.121094 35.808594 5.550781 34.285156 L 6.96875 32.78125 L 26.34375 53.363281 L 24.777344 55.027344 C 24.117188 55.730469 23.246094 56.117188 22.324219 56.117188 Z M 35.605469 56.117188 C 34.683594 56.117188 33.8125 55.730469 33.152344 55.027344 L 31.585938 53.363281 L 33.152344 51.703125 C 33.8125 51 34.683594 50.613281 35.605469 50.613281 C 36.523438 50.613281 37.394531 51 38.054688 51.703125 L 39.621094 53.367188 L 38.054688 55.027344 C 37.394531 55.730469 36.523438 56.117188 35.605469 56.117188 Z M 65.65625 39.808594 L 51.332031 55.027344 C 50.667969 55.730469 49.796875 56.117188 48.878906 56.117188 C 47.957031 56.117188 47.085938 55.730469 46.425781 55.027344 L 44.863281 53.367188 L 64.238281 32.78125 L 65.65625 34.285156 C 67.089844 35.808594 67.089844 38.289062 65.65625 39.808594 Z M 65.65625 39.808594 " clip-rule="nonzero"/></clipPath><linearGradient x1="-1.8" gradientTransform="matrix(0.381016, 0, 0, 0.382771, 0.685829, 0.048189)" y1="78.239998" x2="185.125979" gradientUnits="userSpaceOnUse" y2="78.239998" xlink:type="simple" xlink:actuate="onLoad" id="id3" xlink:show="other"><stop stop-opacity="1" stop-color="rgb(100%, 100%, 100%)" offset="0"/><stop stop-opacity="1" stop-color="rgb(100%, 100%, 100%)" offset="0.0078125"/><stop stop-opacity="1" stop-color="rgb(99.769592%, 99.914551%, 99.928284%)" offset="0.0117188"/><stop stop-opacity="1" stop-color="rgb(99.54071%, 99.829102%, 99.858093%)" offset="0.015625"/><stop stop-opacity="1" stop-color="rgb(99.241638%, 99.717712%, 99.765015%)" offset="0.0195312"/><stop stop-opacity="1" stop-color="rgb(98.944092%, 99.607849%, 99.673462%)" offset="0.0234375"/><stop stop-opacity="1" stop-color="rgb(98.64502%, 99.49646%, 99.581909%)" offset="0.0273438"/><stop stop-opacity="1" stop-color="rgb(98.347473%, 99.386597%, 99.490356%)" offset="0.03125"/><stop stop-opacity="1" stop-color="rgb(98.048401%, 99.275208%, 99.397278%)" offset="0.0351563"/><stop stop-opacity="1" stop-color="rgb(97.750854%, 99.165344%, 99.305725%)" offset="0.0390625"/><stop stop-opacity="1" stop-color="rgb(97.451782%, 99.053955%, 99.212646%)" offset="0.0429688"/><stop stop-opacity="1" stop-color="rgb(97.154236%, 98.942566%, 99.121094%)" offset="0.046875"/><stop stop-opacity="1" stop-color="rgb(96.855164%, 98.831177%, 99.029541%)" offset="0.0507813"/><stop stop-opacity="1" stop-color="rgb(96.557617%, 98.721313%, 98.937988%)" offset="0.0546875"/><stop stop-opacity="1" stop-color="rgb(96.258545%, 98.609924%, 98.84491%)" offset="0.0585938"/><stop stop-opacity="1" stop-color="rgb(95.960999%, 98.500061%, 98.753357%)" offset="0.0625"/><stop stop-opacity="1" stop-color="rgb(95.661926%, 98.388672%, 98.661804%)" offset="0.0664063"/><stop stop-opacity="1" stop-color="rgb(95.36438%, 98.278809%, 98.570251%)" offset="0.0703125"/><stop stop-opacity="1" stop-color="rgb(95.065308%, 98.167419%, 98.477173%)" offset="0.0742188"/><stop stop-opacity="1" stop-color="rgb(94.767761%, 98.057556%, 98.38562%)" offset="0.078125"/><stop stop-opacity="1" stop-color="rgb(94.468689%, 97.946167%, 98.292542%)" offset="0.0820312"/><stop stop-opacity="1" stop-color="rgb(94.171143%, 97.836304%, 98.200989%)" offset="0.0859375"/><stop stop-opacity="1" stop-color="rgb(93.87207%, 97.724915%, 98.109436%)" offset="0.0898438"/><stop stop-opacity="1" stop-color="rgb(93.572998%, 97.615051%, 98.017883%)" offset="0.09375"/><stop stop-opacity="1" stop-color="rgb(93.273926%, 97.503662%, 97.924805%)" offset="0.0976562"/><stop stop-opacity="1" stop-color="rgb(92.976379%, 97.392273%, 97.833252%)" offset="0.101562"/><stop stop-opacity="1" stop-color="rgb(92.677307%, 97.280884%, 97.741699%)" offset="0.105469"/><stop stop-opacity="1" stop-color="rgb(92.379761%, 97.171021%, 97.650146%)" offset="0.109375"/><stop stop-opacity="1" stop-color="rgb(92.080688%, 97.059631%, 97.557068%)" offset="0.113281"/><stop stop-opacity="1" stop-color="rgb(91.783142%, 96.949768%, 97.465515%)" offset="0.117188"/><stop stop-opacity="1" stop-color="rgb(91.48407%, 96.838379%, 97.372437%)" offset="0.121094"/><stop stop-opacity="1" stop-color="rgb(91.186523%, 96.728516%, 97.280884%)" offset="0.125"/><stop stop-opacity="1" stop-color="rgb(90.887451%, 96.617126%, 97.189331%)" offset="0.128906"/><stop stop-opacity="1" stop-color="rgb(90.589905%, 96.507263%, 97.097778%)" offset="0.132812"/><stop stop-opacity="1" stop-color="rgb(90.290833%, 96.395874%, 97.0047%)" offset="0.136719"/><stop stop-opacity="1" stop-color="rgb(89.993286%, 96.286011%, 96.913147%)" offset="0.140625"/><stop stop-opacity="1" stop-color="rgb(89.694214%, 96.174622%, 96.820068%)" offset="0.144531"/><stop stop-opacity="1" stop-color="rgb(89.396667%, 96.063232%, 96.728516%)" offset="0.148438"/><stop stop-opacity="1" stop-color="rgb(89.097595%, 95.951843%, 96.636963%)" offset="0.152344"/><stop stop-opacity="1" stop-color="rgb(88.800049%, 95.84198%, 96.54541%)" offset="0.15625"/><stop stop-opacity="1" stop-color="rgb(88.500977%, 95.730591%, 96.452332%)" offset="0.160156"/><stop stop-opacity="1" stop-color="rgb(88.20343%, 95.620728%, 96.360779%)" offset="0.164062"/><stop stop-opacity="1" stop-color="rgb(87.904358%, 95.509338%, 96.269226%)" offset="0.167969"/><stop stop-opacity="1" stop-color="rgb(87.605286%, 95.399475%, 96.177673%)" offset="0.171875"/><stop stop-opacity="1" stop-color="rgb(87.306213%, 95.288086%, 96.084595%)" offset="0.175781"/><stop stop-opacity="1" stop-color="rgb(87.008667%, 95.178223%, 95.993042%)" offset="0.179688"/><stop stop-opacity="1" stop-color="rgb(86.709595%, 95.066833%, 95.899963%)" offset="0.183594"/><stop stop-opacity="1" stop-color="rgb(86.412048%, 94.95697%, 95.808411%)" offset="0.1875"/><stop stop-opacity="1" stop-color="rgb(86.112976%, 94.845581%, 95.716858%)" offset="0.191406"/><stop stop-opacity="1" stop-color="rgb(85.81543%, 94.734192%, 95.625305%)" offset="0.195312"/><stop stop-opacity="1" stop-color="rgb(85.516357%, 94.622803%, 95.532227%)" offset="0.199219"/><stop stop-opacity="1" stop-color="rgb(85.218811%, 94.512939%, 95.440674%)" offset="0.203125"/><stop stop-opacity="1" stop-color="rgb(84.919739%, 94.40155%, 95.347595%)" offset="0.207031"/><stop stop-opacity="1" stop-color="rgb(84.622192%, 94.291687%, 95.256042%)" offset="0.210938"/><stop stop-opacity="1" stop-color="rgb(84.32312%, 94.180298%, 95.16449%)" offset="0.214844"/><stop stop-opacity="1" stop-color="rgb(84.025574%, 94.070435%, 95.072937%)" offset="0.21875"/><stop stop-opacity="1" stop-color="rgb(83.726501%, 93.959045%, 94.979858%)" offset="0.222656"/><stop stop-opacity="1" stop-color="rgb(83.428955%, 93.849182%, 94.888306%)" offset="0.226562"/><stop stop-opacity="1" stop-color="rgb(83.129883%, 93.737793%, 94.796753%)" offset="0.230469"/><stop stop-opacity="1" stop-color="rgb(82.832336%, 93.62793%, 94.7052%)" offset="0.234375"/><stop stop-opacity="1" stop-color="rgb(82.533264%, 93.516541%, 94.612122%)" offset="0.238281"/><stop stop-opacity="1" stop-color="rgb(82.235718%, 93.405151%, 94.520569%)" offset="0.242188"/><stop stop-opacity="1" stop-color="rgb(81.936646%, 93.293762%, 94.42749%)" offset="0.246094"/><stop stop-opacity="1" stop-color="rgb(81.639099%, 93.183899%, 94.335938%)" offset="0.25"/><stop stop-opacity="1" stop-color="rgb(81.340027%, 93.07251%, 94.244385%)" offset="0.253906"/><stop stop-opacity="1" stop-color="rgb(81.040955%, 92.962646%, 94.152832%)" offset="0.257812"/><stop stop-opacity="1" stop-color="rgb(80.741882%, 92.851257%, 94.059753%)" offset="0.261719"/><stop stop-opacity="1" stop-color="rgb(80.444336%, 92.741394%, 93.968201%)" offset="0.265625"/><stop stop-opacity="1" stop-color="rgb(80.145264%, 92.630005%, 93.876648%)" offset="0.269531"/><stop stop-opacity="1" stop-color="rgb(79.847717%, 92.520142%, 93.785095%)" offset="0.273438"/><stop stop-opacity="1" stop-color="rgb(79.548645%, 92.408752%, 93.692017%)" offset="0.277344"/><stop stop-opacity="1" stop-color="rgb(79.251099%, 92.298889%, 93.600464%)" offset="0.28125"/><stop stop-opacity="1" stop-color="rgb(78.952026%, 92.1875%, 93.507385%)" offset="0.285156"/><stop stop-opacity="1" stop-color="rgb(78.65448%, 92.077637%, 93.415833%)" offset="0.289063"/><stop stop-opacity="1" stop-color="rgb(78.355408%, 91.966248%, 93.32428%)" offset="0.292969"/><stop stop-opacity="1" stop-color="rgb(78.057861%, 91.854858%, 93.232727%)" offset="0.296875"/><stop stop-opacity="1" stop-color="rgb(77.758789%, 91.743469%, 93.139648%)" offset="0.300781"/><stop stop-opacity="1" stop-color="rgb(77.461243%, 91.633606%, 93.048096%)" offset="0.304688"/><stop stop-opacity="1" stop-color="rgb(77.16217%, 91.522217%, 92.955017%)" offset="0.308594"/><stop stop-opacity="1" stop-color="rgb(76.864624%, 91.412354%, 92.863464%)" offset="0.3125"/><stop stop-opacity="1" stop-color="rgb(76.565552%, 91.300964%, 92.771912%)" offset="0.316406"/><stop stop-opacity="1" stop-color="rgb(76.268005%, 91.191101%, 92.680359%)" offset="0.320313"/><stop stop-opacity="1" stop-color="rgb(75.968933%, 91.079712%, 92.58728%)" offset="0.324219"/><stop stop-opacity="1" stop-color="rgb(75.671387%, 90.969849%, 92.495728%)" offset="0.328125"/><stop stop-opacity="1" stop-color="rgb(75.372314%, 90.858459%, 92.404175%)" offset="0.332031"/><stop stop-opacity="1" stop-color="rgb(75.073242%, 90.748596%, 92.312622%)" offset="0.335937"/><stop stop-opacity="1" stop-color="rgb(74.77417%, 90.637207%, 92.219543%)" offset="0.339844"/><stop stop-opacity="1" stop-color="rgb(74.476624%, 90.525818%, 92.127991%)" offset="0.34375"/><stop stop-opacity="1" stop-color="rgb(74.177551%, 90.414429%, 92.034912%)" offset="0.347656"/><stop stop-opacity="1" stop-color="rgb(73.880005%, 90.304565%, 91.943359%)" offset="0.351562"/><stop stop-opacity="1" stop-color="rgb(73.580933%, 90.193176%, 91.851807%)" offset="0.355469"/><stop stop-opacity="1" stop-color="rgb(73.283386%, 90.083313%, 91.760254%)" offset="0.359375"/><stop stop-opacity="1" stop-color="rgb(72.984314%, 89.971924%, 91.667175%)" offset="0.363281"/><stop stop-opacity="1" stop-color="rgb(72.686768%, 89.862061%, 91.575623%)" offset="0.367187"/><stop stop-opacity="1" stop-color="rgb(72.387695%, 89.750671%, 91.482544%)" offset="0.371094"/><stop stop-opacity="1" stop-color="rgb(72.090149%, 89.640808%, 91.390991%)" offset="0.375"/><stop stop-opacity="1" stop-color="rgb(71.791077%, 89.529419%, 91.299438%)" offset="0.378906"/><stop stop-opacity="1" stop-color="rgb(71.49353%, 89.419556%, 91.207886%)" offset="0.382812"/><stop stop-opacity="1" stop-color="rgb(71.194458%, 89.308167%, 91.114807%)" offset="0.386719"/><stop stop-opacity="1" stop-color="rgb(70.896912%, 89.196777%, 91.023254%)" offset="0.390625"/><stop stop-opacity="1" stop-color="rgb(70.597839%, 89.085388%, 90.931702%)" offset="0.394531"/><stop stop-opacity="1" stop-color="rgb(70.300293%, 88.975525%, 90.840149%)" offset="0.398437"/><stop stop-opacity="1" stop-color="rgb(70.001221%, 88.864136%, 90.74707%)" offset="0.402344"/><stop stop-opacity="1" stop-color="rgb(69.703674%, 88.754272%, 90.655518%)" offset="0.40625"/><stop stop-opacity="1" stop-color="rgb(69.404602%, 88.642883%, 90.562439%)" offset="0.410156"/><stop stop-opacity="1" stop-color="rgb(69.10553%, 88.53302%, 90.470886%)" offset="0.414062"/><stop stop-opacity="1" stop-color="rgb(68.806458%, 88.421631%, 90.379333%)" offset="0.417969"/><stop stop-opacity="1" stop-color="rgb(68.508911%, 88.311768%, 90.287781%)" offset="0.421875"/><stop stop-opacity="1" stop-color="rgb(68.209839%, 88.200378%, 90.194702%)" offset="0.425781"/><stop stop-opacity="1" stop-color="rgb(67.912292%, 88.090515%, 90.103149%)" offset="0.429688"/><stop stop-opacity="1" stop-color="rgb(67.61322%, 87.979126%, 90.011597%)" offset="0.433594"/><stop stop-opacity="1" stop-color="rgb(67.315674%, 87.867737%, 89.920044%)" offset="0.4375"/><stop stop-opacity="1" stop-color="rgb(67.016602%, 87.756348%, 89.826965%)" offset="0.441406"/><stop stop-opacity="1" stop-color="rgb(66.719055%, 87.646484%, 89.735413%)" offset="0.445312"/><stop stop-opacity="1" stop-color="rgb(66.419983%, 87.535095%, 89.642334%)" offset="0.449219"/><stop stop-opacity="1" stop-color="rgb(66.122437%, 87.425232%, 89.550781%)" offset="0.453125"/><stop stop-opacity="1" stop-color="rgb(65.823364%, 87.313843%, 89.459229%)" offset="0.457031"/><stop stop-opacity="1" stop-color="rgb(65.525818%, 87.203979%, 89.367676%)" offset="0.460938"/><stop stop-opacity="1" stop-color="rgb(65.226746%, 87.09259%, 89.274597%)" offset="0.464844"/><stop stop-opacity="1" stop-color="rgb(64.929199%, 86.982727%, 89.183044%)" offset="0.46875"/><stop stop-opacity="1" stop-color="rgb(64.630127%, 86.871338%, 89.089966%)" offset="0.472656"/><stop stop-opacity="1" stop-color="rgb(64.332581%, 86.761475%, 88.998413%)" offset="0.476563"/><stop stop-opacity="1" stop-color="rgb(64.033508%, 86.650085%, 88.90686%)" offset="0.480469"/><stop stop-opacity="1" stop-color="rgb(63.735962%, 86.540222%, 88.815308%)" offset="0.484375"/><stop stop-opacity="1" stop-color="rgb(63.43689%, 86.428833%, 88.722229%)" offset="0.488281"/><stop stop-opacity="1" stop-color="rgb(63.139343%, 86.317444%, 88.630676%)" offset="0.492188"/><stop stop-opacity="1" stop-color="rgb(62.840271%, 86.206055%, 88.539124%)" offset="0.496094"/><stop stop-opacity="1" stop-color="rgb(62.541199%, 86.096191%, 88.447571%)" offset="0.5"/><stop stop-opacity="1" stop-color="rgb(62.242126%, 85.984802%, 88.354492%)" offset="0.503906"/><stop stop-opacity="1" stop-color="rgb(61.94458%, 85.874939%, 88.262939%)" offset="0.507812"/><stop stop-opacity="1" stop-color="rgb(61.645508%, 85.76355%, 88.169861%)" offset="0.511719"/><stop stop-opacity="1" stop-color="rgb(61.347961%, 85.653687%, 88.078308%)" offset="0.515625"/><stop stop-opacity="1" stop-color="rgb(61.048889%, 85.542297%, 87.986755%)" offset="0.519531"/><stop stop-opacity="1" stop-color="rgb(60.751343%, 85.432434%, 87.895203%)" offset="0.523438"/><stop stop-opacity="1" stop-color="rgb(60.452271%, 85.321045%, 87.802124%)" offset="0.527344"/><stop stop-opacity="1" stop-color="rgb(60.154724%, 85.211182%, 87.710571%)" offset="0.53125"/><stop stop-opacity="1" stop-color="rgb(59.855652%, 85.099792%, 87.619019%)" offset="0.535156"/><stop stop-opacity="1" stop-color="rgb(59.558105%, 84.988403%, 87.527466%)" offset="0.539062"/><stop stop-opacity="1" stop-color="rgb(59.259033%, 84.877014%, 87.434387%)" offset="0.542969"/><stop stop-opacity="1" stop-color="rgb(58.961487%, 84.767151%, 87.342834%)" offset="0.546875"/><stop stop-opacity="1" stop-color="rgb(58.662415%, 84.655762%, 87.249756%)" offset="0.550781"/><stop stop-opacity="1" stop-color="rgb(58.364868%, 84.545898%, 87.158203%)" offset="0.554688"/><stop stop-opacity="1" stop-color="rgb(58.065796%, 84.434509%, 87.06665%)" offset="0.558594"/><stop stop-opacity="1" stop-color="rgb(57.76825%, 84.324646%, 86.975098%)" offset="0.5625"/><stop stop-opacity="1" stop-color="rgb(57.469177%, 84.213257%, 86.882019%)" offset="0.566406"/><stop stop-opacity="1" stop-color="rgb(57.171631%, 84.103394%, 86.790466%)" offset="0.570313"/><stop stop-opacity="1" stop-color="rgb(56.872559%, 83.992004%, 86.697388%)" offset="0.574219"/><stop stop-opacity="1" stop-color="rgb(56.573486%, 83.882141%, 86.605835%)" offset="0.578125"/><stop stop-opacity="1" stop-color="rgb(56.274414%, 83.770752%, 86.514282%)" offset="0.582031"/><stop stop-opacity="1" stop-color="rgb(55.976868%, 83.659363%, 86.422729%)" offset="0.585938"/><stop stop-opacity="1" stop-color="rgb(55.677795%, 83.547974%, 86.329651%)" offset="0.589844"/><stop stop-opacity="1" stop-color="rgb(55.380249%, 83.43811%, 86.238098%)" offset="0.59375"/><stop stop-opacity="1" stop-color="rgb(55.081177%, 83.326721%, 86.146545%)" offset="0.597656"/><stop stop-opacity="1" stop-color="rgb(54.78363%, 83.216858%, 86.054993%)" offset="0.601563"/><stop stop-opacity="1" stop-color="rgb(54.484558%, 83.105469%, 85.961914%)" offset="0.605469"/><stop stop-opacity="1" stop-color="rgb(54.187012%, 82.995605%, 85.870361%)" offset="0.609375"/><stop stop-opacity="1" stop-color="rgb(53.887939%, 82.884216%, 85.777283%)" offset="0.613281"/><stop stop-opacity="1" stop-color="rgb(53.590393%, 82.774353%, 85.68573%)" offset="0.617188"/><stop stop-opacity="1" stop-color="rgb(53.291321%, 82.662964%, 85.594177%)" offset="0.621094"/><stop stop-opacity="1" stop-color="rgb(52.993774%, 82.553101%, 85.502625%)" offset="0.625"/><stop stop-opacity="1" stop-color="rgb(52.694702%, 82.441711%, 85.409546%)" offset="0.628906"/><stop stop-opacity="1" stop-color="rgb(52.397156%, 82.330322%, 85.317993%)" offset="0.632812"/><stop stop-opacity="1" stop-color="rgb(52.098083%, 82.218933%, 85.224915%)" offset="0.636719"/><stop stop-opacity="1" stop-color="rgb(51.800537%, 82.10907%, 85.133362%)" offset="0.640625"/><stop stop-opacity="1" stop-color="rgb(51.501465%, 81.997681%, 85.041809%)" offset="0.644531"/><stop stop-opacity="1" stop-color="rgb(51.203918%, 81.887817%, 84.950256%)" offset="0.648438"/><stop stop-opacity="1" stop-color="rgb(50.904846%, 81.776428%, 84.857178%)" offset="0.652344"/><stop stop-opacity="1" stop-color="rgb(50.6073%, 81.666565%, 84.765625%)" offset="0.65625"/><stop stop-opacity="1" stop-color="rgb(50.308228%, 81.555176%, 84.674072%)" offset="0.660156"/><stop stop-opacity="1" stop-color="rgb(50.009155%, 81.445312%, 84.58252%)" offset="0.664062"/><stop stop-opacity="1" stop-color="rgb(49.710083%, 81.333923%, 84.489441%)" offset="0.667969"/><stop stop-opacity="1" stop-color="rgb(49.412537%, 81.22406%, 84.397888%)" offset="0.671875"/><stop stop-opacity="1" stop-color="rgb(49.113464%, 81.112671%, 84.30481%)" offset="0.675781"/><stop stop-opacity="1" stop-color="rgb(48.815918%, 81.002808%, 84.213257%)" offset="0.679688"/><stop stop-opacity="1" stop-color="rgb(48.516846%, 80.891418%, 84.121704%)" offset="0.683594"/><stop stop-opacity="1" stop-color="rgb(48.219299%, 80.780029%, 84.030151%)" offset="0.6875"/><stop stop-opacity="1" stop-color="rgb(47.920227%, 80.66864%, 83.937073%)" offset="0.691406"/><stop stop-opacity="1" stop-color="rgb(47.622681%, 80.558777%, 83.84552%)" offset="0.695312"/><stop stop-opacity="1" stop-color="rgb(47.323608%, 80.447388%, 83.753967%)" offset="0.699219"/><stop stop-opacity="1" stop-color="rgb(47.026062%, 80.337524%, 83.662415%)" offset="0.703125"/><stop stop-opacity="1" stop-color="rgb(46.72699%, 80.226135%, 83.569336%)" offset="0.707031"/><stop stop-opacity="1" stop-color="rgb(46.429443%, 80.116272%, 83.477783%)" offset="0.710937"/><stop stop-opacity="1" stop-color="rgb(46.130371%, 80.004883%, 83.384705%)" offset="0.714844"/><stop stop-opacity="1" stop-color="rgb(45.832825%, 79.89502%, 83.293152%)" offset="0.71875"/><stop stop-opacity="1" stop-color="rgb(45.533752%, 79.78363%, 83.201599%)" offset="0.722656"/><stop stop-opacity="1" stop-color="rgb(45.236206%, 79.673767%, 83.110046%)" offset="0.726562"/><stop stop-opacity="1" stop-color="rgb(44.937134%, 79.562378%, 83.016968%)" offset="0.730469"/><stop stop-opacity="1" stop-color="rgb(44.639587%, 79.450989%, 82.925415%)" offset="0.734375"/><stop stop-opacity="1" stop-color="rgb(44.340515%, 79.3396%, 82.832336%)" offset="0.738281"/><stop stop-opacity="1" stop-color="rgb(44.041443%, 79.229736%, 82.740784%)" offset="0.742187"/><stop stop-opacity="1" stop-color="rgb(43.742371%, 79.118347%, 82.649231%)" offset="0.746094"/><stop stop-opacity="1" stop-color="rgb(43.444824%, 79.008484%, 82.557678%)" offset="0.75"/><stop stop-opacity="1" stop-color="rgb(43.145752%, 78.897095%, 82.4646%)" offset="0.753906"/><stop stop-opacity="1" stop-color="rgb(42.848206%, 78.787231%, 82.373047%)" offset="0.757812"/><stop stop-opacity="1" stop-color="rgb(42.549133%, 78.675842%, 82.281494%)" offset="0.761719"/><stop stop-opacity="1" stop-color="rgb(42.251587%, 78.565979%, 82.189941%)" offset="0.765625"/><stop stop-opacity="1" stop-color="rgb(41.952515%, 78.45459%, 82.096863%)" offset="0.769531"/><stop stop-opacity="1" stop-color="rgb(41.654968%, 78.344727%, 82.00531%)" offset="0.773437"/><stop stop-opacity="1" stop-color="rgb(41.355896%, 78.233337%, 81.912231%)" offset="0.777344"/><stop stop-opacity="1" stop-color="rgb(41.05835%, 78.121948%, 81.820679%)" offset="0.78125"/><stop stop-opacity="1" stop-color="rgb(40.759277%, 78.010559%, 81.729126%)" offset="0.785156"/><stop stop-opacity="1" stop-color="rgb(40.461731%, 77.900696%, 81.637573%)" offset="0.789062"/><stop stop-opacity="1" stop-color="rgb(40.162659%, 77.789307%, 81.544495%)" offset="0.792969"/><stop stop-opacity="1" stop-color="rgb(39.865112%, 77.679443%, 81.452942%)" offset="0.796875"/><stop stop-opacity="1" stop-color="rgb(39.56604%, 77.568054%, 81.359863%)" offset="0.800781"/><stop stop-opacity="1" stop-color="rgb(39.268494%, 77.458191%, 81.268311%)" offset="0.804687"/><stop stop-opacity="1" stop-color="rgb(38.969421%, 77.346802%, 81.176758%)" offset="0.808594"/><stop stop-opacity="1" stop-color="rgb(38.671875%, 77.236938%, 81.085205%)" offset="0.8125"/><stop stop-opacity="1" stop-color="rgb(38.372803%, 77.125549%, 80.992126%)" offset="0.816406"/><stop stop-opacity="1" stop-color="rgb(38.075256%, 77.015686%, 80.900574%)" offset="0.820312"/><stop stop-opacity="1" stop-color="rgb(37.776184%, 76.904297%, 80.809021%)" offset="0.824219"/><stop stop-opacity="1" stop-color="rgb(37.477112%, 76.794434%, 80.717468%)" offset="0.828125"/><stop stop-opacity="1" stop-color="rgb(37.17804%, 76.683044%, 80.62439%)" offset="0.832031"/><stop stop-opacity="1" stop-color="rgb(36.880493%, 76.571655%, 80.532837%)" offset="0.835938"/><stop stop-opacity="1" stop-color="rgb(36.581421%, 76.460266%, 80.439758%)" offset="0.839844"/><stop stop-opacity="1" stop-color="rgb(36.283875%, 76.350403%, 80.348206%)" offset="0.84375"/><stop stop-opacity="1" stop-color="rgb(35.984802%, 76.239014%, 80.256653%)" offset="0.847656"/><stop stop-opacity="1" stop-color="rgb(35.687256%, 76.12915%, 80.1651%)" offset="0.851562"/><stop stop-opacity="1" stop-color="rgb(35.388184%, 76.017761%, 80.072021%)" offset="0.855469"/><stop stop-opacity="1" stop-color="rgb(35.090637%, 75.907898%, 79.980469%)" offset="0.859375"/><stop stop-opacity="1" stop-color="rgb(34.791565%, 75.796509%, 79.888916%)" offset="0.863281"/><stop stop-opacity="1" stop-color="rgb(34.494019%, 75.686646%, 79.797363%)" offset="0.867188"/><stop stop-opacity="1" stop-color="rgb(34.194946%, 75.575256%, 79.704285%)" offset="0.871094"/><stop stop-opacity="1" stop-color="rgb(33.8974%, 75.465393%, 79.612732%)" offset="0.875"/><stop stop-opacity="1" stop-color="rgb(33.598328%, 75.354004%, 79.519653%)" offset="0.878906"/><stop stop-opacity="1" stop-color="rgb(33.300781%, 75.242615%, 79.428101%)" offset="0.882812"/><stop stop-opacity="1" stop-color="rgb(33.001709%, 75.131226%, 79.336548%)" offset="0.886719"/><stop stop-opacity="1" stop-color="rgb(32.704163%, 75.021362%, 79.244995%)" offset="0.890625"/><stop stop-opacity="1" stop-color="rgb(32.40509%, 74.909973%, 79.151917%)" offset="0.894531"/><stop stop-opacity="1" stop-color="rgb(32.107544%, 74.80011%, 79.060364%)" offset="0.898437"/><stop stop-opacity="1" stop-color="rgb(31.808472%, 74.688721%, 78.967285%)" offset="0.902344"/><stop stop-opacity="1" stop-color="rgb(31.509399%, 74.578857%, 78.875732%)" offset="0.90625"/><stop stop-opacity="1" stop-color="rgb(31.210327%, 74.467468%, 78.78418%)" offset="0.910156"/><stop stop-opacity="1" stop-color="rgb(30.912781%, 74.357605%, 78.692627%)" offset="0.914062"/><stop stop-opacity="1" stop-color="rgb(30.613708%, 74.246216%, 78.599548%)" offset="0.917969"/><stop stop-opacity="1" stop-color="rgb(30.316162%, 74.136353%, 78.507996%)" offset="0.921875"/><stop stop-opacity="1" stop-color="rgb(30.01709%, 74.024963%, 78.416443%)" offset="0.925781"/><stop stop-opacity="1" stop-color="rgb(29.719543%, 73.913574%, 78.32489%)" offset="0.929688"/><stop stop-opacity="1" stop-color="rgb(29.420471%, 73.802185%, 78.231812%)" offset="0.933594"/><stop stop-opacity="1" stop-color="rgb(29.122925%, 73.692322%, 78.140259%)" offset="0.9375"/><stop stop-opacity="1" stop-color="rgb(28.823853%, 73.580933%, 78.04718%)" offset="0.941406"/><stop stop-opacity="1" stop-color="rgb(28.526306%, 73.471069%, 77.955627%)" offset="0.945313"/><stop stop-opacity="1" stop-color="rgb(28.227234%, 73.35968%, 77.864075%)" offset="0.949219"/><stop stop-opacity="1" stop-color="rgb(27.929688%, 73.249817%, 77.772522%)" offset="0.953125"/><stop stop-opacity="1" stop-color="rgb(27.630615%, 73.138428%, 77.679443%)" offset="0.957031"/><stop stop-opacity="1" stop-color="rgb(27.333069%, 73.028564%, 77.587891%)" offset="0.960938"/><stop stop-opacity="1" stop-color="rgb(27.033997%, 72.917175%, 77.496338%)" offset="0.964844"/><stop stop-opacity="1" stop-color="rgb(26.73645%, 72.807312%, 77.404785%)" offset="0.96875"/><stop stop-opacity="1" stop-color="rgb(26.437378%, 72.695923%, 77.311707%)" offset="0.972656"/><stop stop-opacity="1" stop-color="rgb(26.139832%, 72.584534%, 77.220154%)" offset="0.976562"/><stop stop-opacity="1" stop-color="rgb(25.840759%, 72.473145%, 77.127075%)" offset="0.980469"/><stop stop-opacity="1" stop-color="rgb(25.543213%, 72.363281%, 77.035522%)" offset="0.984375"/><stop stop-opacity="1" stop-color="rgb(25.320435%, 72.280884%, 76.966858%)" offset="0.988281"/><stop stop-opacity="1" stop-color="rgb(25.099182%, 72.198486%, 76.899719%)" offset="0.992188"/><stop stop-opacity="1" stop-color="rgb(25.099182%, 72.198486%, 76.899719%)" offset="1"/></linearGradient></defs><g clip-path="url(#id1)"><g clip-path="url(#id2)"><path fill="url(#id3)" d="M 0 0.046875 L 0 59.945312 L 71.222656 59.945312 L 71.222656 0.046875 Z M 0 0.046875 " fill-rule="nonzero"/></g></g><g fill="rgb(80.389404%, 90.589905%, 90.979004%)" fill-opacity="1"><g transform="translate(80.197614, 23.911733)"><g><path d="M 5.925781 -9.863281 C 3.148438 -9.863281 0.617188 -8.378906 0.617188 -4.800781 C 0.617188 -0.679688 3.980469 0.292969 5.925781 0.292969 C 7.855469 0.292969 11.234375 -0.679688 11.234375 -4.800781 C 11.234375 -8.378906 8.6875 -9.863281 5.925781 -9.863281 Z M 5.925781 0.03125 C 4.183594 0.03125 1.742188 -0.742188 1.742188 -4.800781 C 1.742188 -8.796875 4.429688 -9.613281 5.925781 -9.613281 C 7.421875 -9.613281 10.109375 -8.796875 10.109375 -4.800781 C 10.109375 -0.742188 7.65625 0.03125 5.925781 0.03125 Z M 5.925781 0.03125 "/></g></g></g><g fill="rgb(80.389404%, 90.589905%, 90.979004%)" fill-opacity="1"><g transform="translate(100.485995, 23.911733)"><g><path d="M 10.570312 -9.863281 L 10.542969 -9.863281 L 6.203125 -1.652344 L 1.929688 -9.863281 L 1.882812 -9.863281 L 0.554688 0.015625 L 0.800781 0.015625 L 1.835938 -7.640625 L 5.679688 -0.246094 L 5.742188 -0.246094 L 9.707031 -7.761719 L 10.617188 0.015625 L 11.730469 0.015625 Z M 10.570312 -9.863281 "/></g></g></g><g fill="rgb(80.389404%, 90.589905%, 90.979004%)" fill-opacity="1"><g transform="translate(121.190787, 23.911733)"><g><path d="M 5.648438 -9.429688 L 5.648438 -9.675781 L 0.742188 -9.675781 L 0.742188 0.015625 L 5.648438 0.015625 L 5.648438 -0.230469 L 1.835938 -0.230469 L 1.835938 -4.921875 L 5.230469 -4.921875 L 5.230469 -5.171875 L 1.835938 -5.171875 L 1.835938 -9.429688 Z M 5.648438 -9.429688 "/></g></g></g><g fill="rgb(80.389404%, 90.589905%, 90.979004%)" fill-opacity="1"><g transform="translate(135.849848, 23.911733)"><g><path d="M 6.527344 -4.921875 L 6.527344 -4.660156 L 7.917969 -4.660156 L 7.917969 -0.324219 C 7.394531 -0.125 6.699219 0.03125 5.925781 0.03125 C 3.519531 0.03125 1.742188 -1.171875 1.742188 -4.800781 C 1.742188 -8.796875 4.289062 -9.613281 5.925781 -9.613281 C 7.746094 -9.613281 8.75 -9.183594 8.75 -9.183594 L 8.75 -9.492188 C 8.75 -9.492188 7.6875 -9.863281 5.925781 -9.863281 C 3.148438 -9.863281 0.617188 -8.378906 0.617188 -4.800781 C 0.617188 -0.679688 3.84375 0.292969 5.789062 0.292969 C 7.71875 0.292969 9.011719 -0.523438 9.011719 -0.523438 L 9.011719 -4.921875 Z M 6.527344 -4.921875 "/></g></g></g><g fill="rgb(80.389404%, 90.589905%, 90.979004%)" fill-opacity="1"><g transform="translate(153.979033, 23.911733)"><g><path d="M 8.070312 0.015625 L 9.261719 0.015625 L 5.015625 -9.863281 L 4.9375 -9.863281 L 0.539062 0.015625 L 0.878906 0.015625 L 2.625 -3.875 L 6.390625 -3.875 Z M 2.730469 -4.136719 L 4.539062 -8.195312 L 6.28125 -4.136719 Z M 2.730469 -4.136719 "/></g></g></g><g fill="rgb(80.389404%, 90.589905%, 90.979004%)" fill-opacity="1"><g transform="translate(172.139073, 23.911733)"><g/></g></g><g fill="rgb(80.389404%, 90.589905%, 90.979004%)" fill-opacity="1"><g transform="translate(184.34591, 23.911733)"><g><path d="M 8.75 -0.863281 C 8.75 -0.863281 7.71875 0.03125 5.925781 0.03125 C 4.199219 0.03125 1.742188 -0.742188 1.742188 -4.800781 C 1.742188 -8.796875 4.429688 -9.613281 5.925781 -9.613281 C 7.746094 -9.613281 8.75 -8.890625 8.75 -8.890625 L 8.75 -9.230469 C 8.75 -9.230469 7.6875 -9.863281 5.925781 -9.863281 C 3.148438 -9.863281 0.617188 -8.378906 0.617188 -4.800781 C 0.617188 -0.679688 3.84375 0.292969 5.789062 0.292969 C 7.71875 0.292969 8.75 -0.523438 8.75 -0.523438 Z M 8.75 -0.863281 "/></g></g></g><g fill="rgb(80.389404%, 90.589905%, 90.979004%)" fill-opacity="1"><g transform="translate(202.104954, 23.911733)"><g><path d="M 7.792969 -9.675781 L 7.792969 -3.703125 C 7.792969 -0.757812 6.296875 -0.109375 4.539062 -0.109375 C 1.929688 -0.109375 1.789062 -2.46875 1.789062 -3.566406 L 1.789062 -9.675781 L 0.695312 -9.675781 L 0.695312 -3.566406 C 0.695312 -0.417969 2.484375 0.292969 4.304688 0.292969 C 6.777344 0.292969 8.054688 -1.019531 8.054688 -3.566406 L 8.054688 -9.675781 Z M 7.792969 -9.675781 "/></g></g></g><g fill="rgb(80.389404%, 90.589905%, 90.979004%)" fill-opacity="1"><g transform="translate(219.262508, 23.911733)"><g><path d="M 0.386719 -0.710938 L 0.386719 -0.355469 C 0.386719 -0.355469 1.328125 0.402344 2.996094 0.402344 C 4.660156 0.402344 6.25 -0.757812 6.25 -2.46875 C 6.25 -5.925781 1.296875 -4.90625 1.296875 -7.71875 C 1.296875 -8.8125 2.050781 -9.707031 3.378906 -9.707031 C 4.691406 -9.707031 5.539062 -9.074219 5.539062 -9.074219 L 5.523438 -9.398438 C 5.523438 -9.398438 4.597656 -9.96875 3.363281 -9.96875 C 2.144531 -9.96875 0.433594 -9.230469 0.433594 -7.300781 C 0.433594 -3.84375 5.371094 -5.140625 5.371094 -2.082031 C 5.371094 -0.585938 4.230469 0.15625 2.996094 0.15625 C 1.667969 0.15625 0.925781 -0.292969 0.386719 -0.710938 Z M 0.386719 -0.710938 "/></g></g></g><g fill="rgb(80.389404%, 90.589905%, 90.979004%)" fill-opacity="1"><g transform="translate(234.47679, 23.911733)"><g><path d="M 7.578125 -9.675781 L 0.507812 -9.675781 L 0.507812 -9.429688 L 3.488281 -9.429688 L 3.488281 0.015625 L 4.597656 0.015625 L 4.597656 -9.429688 L 7.578125 -9.429688 Z M 7.578125 -9.675781 "/></g></g></g><g fill="rgb(80.389404%, 90.589905%, 90.979004%)" fill-opacity="1"><g transform="translate(250.924893, 23.911733)"><g><path d="M 5.925781 -9.863281 C 3.148438 -9.863281 0.617188 -8.378906 0.617188 -4.800781 C 0.617188 -0.679688 3.980469 0.292969 5.925781 0.292969 C 7.855469 0.292969 11.234375 -0.679688 11.234375 -4.800781 C 11.234375 -8.378906 8.6875 -9.863281 5.925781 -9.863281 Z M 5.925781 0.03125 C 4.183594 0.03125 1.742188 -0.742188 1.742188 -4.800781 C 1.742188 -8.796875 4.429688 -9.613281 5.925781 -9.613281 C 7.421875 -9.613281 10.109375 -8.796875 10.109375 -4.800781 C 10.109375 -0.742188 7.65625 0.03125 5.925781 0.03125 Z M 5.925781 0.03125 "/></g></g></g><g fill="rgb(80.389404%, 90.589905%, 90.979004%)" fill-opacity="1"><g transform="translate(271.21328, 23.911733)"><g><path d="M 10.570312 -9.863281 L 10.542969 -9.863281 L 6.203125 -1.652344 L 1.929688 -9.863281 L 1.882812 -9.863281 L 0.554688 0.015625 L 0.800781 0.015625 L 1.835938 -7.640625 L 5.679688 -0.246094 L 5.742188 -0.246094 L 9.707031 -7.761719 L 10.617188 0.015625 L 11.730469 0.015625 Z M 10.570312 -9.863281 "/></g></g></g><g fill="rgb(80.389404%, 90.589905%, 90.979004%)" fill-opacity="1"><g transform="translate(291.918066, 23.911733)"><g><path d="M 0.386719 -0.710938 L 0.386719 -0.355469 C 0.386719 -0.355469 1.328125 0.402344 2.996094 0.402344 C 4.660156 0.402344 6.25 -0.757812 6.25 -2.46875 C 6.25 -5.925781 1.296875 -4.90625 1.296875 -7.71875 C 1.296875 -8.8125 2.050781 -9.707031 3.378906 -9.707031 C 4.691406 -9.707031 5.539062 -9.074219 5.539062 -9.074219 L 5.523438 -9.398438 C 5.523438 -9.398438 4.597656 -9.96875 3.363281 -9.96875 C 2.144531 -9.96875 0.433594 -9.230469 0.433594 -7.300781 C 0.433594 -3.84375 5.371094 -5.140625 5.371094 -2.082031 C 5.371094 -0.585938 4.230469 0.15625 2.996094 0.15625 C 1.667969 0.15625 0.925781 -0.292969 0.386719 -0.710938 Z M 0.386719 -0.710938 "/></g></g></g><g fill="rgb(80.389404%, 90.589905%, 90.979004%)" fill-opacity="1"><g transform="translate(80.197614, 45.220668)"><g><path d="M 0.386719 -0.710938 L 0.386719 -0.355469 C 0.386719 -0.355469 1.328125 0.402344 2.996094 0.402344 C 4.660156 0.402344 6.25 -0.757812 6.25 -2.46875 C 6.25 -5.925781 1.296875 -4.90625 1.296875 -7.71875 C 1.296875 -8.8125 2.050781 -9.707031 3.378906 -9.707031 C 4.691406 -9.707031 5.539062 -9.074219 5.539062 -9.074219 L 5.523438 -9.398438 C 5.523438 -9.398438 4.597656 -9.96875 3.363281 -9.96875 C 2.144531 -9.96875 0.433594 -9.230469 0.433594 -7.300781 C 0.433594 -3.84375 5.371094 -5.140625 5.371094 -2.082031 C 5.371094 -0.585938 4.230469 0.15625 2.996094 0.15625 C 1.667969 0.15625 0.925781 -0.292969 0.386719 -0.710938 Z M 0.386719 -0.710938 "/></g></g></g><g fill="rgb(80.389404%, 90.589905%, 90.979004%)" fill-opacity="1"><g transform="translate(95.411901, 45.220668)"><g><path d="M 5.925781 -9.863281 C 3.148438 -9.863281 0.617188 -8.378906 0.617188 -4.800781 C 0.617188 -0.679688 3.980469 0.292969 5.925781 0.292969 C 7.855469 0.292969 11.234375 -0.679688 11.234375 -4.800781 C 11.234375 -8.378906 8.6875 -9.863281 5.925781 -9.863281 Z M 5.925781 0.03125 C 4.183594 0.03125 1.742188 -0.742188 1.742188 -4.800781 C 1.742188 -8.796875 4.429688 -9.613281 5.925781 -9.613281 C 7.421875 -9.613281 10.109375 -8.796875 10.109375 -4.800781 C 10.109375 -0.742188 7.65625 0.03125 5.925781 0.03125 Z M 5.925781 0.03125 "/></g></g></g><g fill="rgb(80.389404%, 90.589905%, 90.979004%)" fill-opacity="1"><g transform="translate(115.700282, 45.220668)"><g><path d="M 1.835938 -0.230469 L 1.835938 -9.675781 L 0.742188 -9.675781 L 0.742188 0.015625 L 5.695312 0.015625 L 5.695312 -0.230469 Z M 1.835938 -0.230469 "/></g></g></g><g fill="rgb(80.389404%, 90.589905%, 90.979004%)" fill-opacity="1"><g transform="translate(130.343921, 45.220668)"><g><path d="M 7.792969 -9.675781 L 7.792969 -3.703125 C 7.792969 -0.757812 6.296875 -0.109375 4.539062 -0.109375 C 1.929688 -0.109375 1.789062 -2.46875 1.789062 -3.566406 L 1.789062 -9.675781 L 0.695312 -9.675781 L 0.695312 -3.566406 C 0.695312 -0.417969 2.484375 0.292969 4.304688 0.292969 C 6.777344 0.292969 8.054688 -1.019531 8.054688 -3.566406 L 8.054688 -9.675781 Z M 7.792969 -9.675781 "/></g></g></g><g fill="rgb(80.389404%, 90.589905%, 90.979004%)" fill-opacity="1"><g transform="translate(147.50147, 45.220668)"><g><path d="M 7.578125 -9.675781 L 0.507812 -9.675781 L 0.507812 -9.429688 L 3.488281 -9.429688 L 3.488281 0.015625 L 4.597656 0.015625 L 4.597656 -9.429688 L 7.578125 -9.429688 Z M 7.578125 -9.675781 "/></g></g></g><g fill="rgb(80.389404%, 90.589905%, 90.979004%)" fill-opacity="1"><g transform="translate(163.94958, 45.220668)"><g><path d="M 0.894531 0.015625 L 1.992188 0.015625 L 1.992188 -9.675781 L 0.894531 -9.675781 Z M 0.894531 0.015625 "/></g></g></g><g fill="rgb(80.389404%, 90.589905%, 90.979004%)" fill-opacity="1"><g transform="translate(175.261898, 45.220668)"><g><path d="M 5.925781 -9.863281 C 3.148438 -9.863281 0.617188 -8.378906 0.617188 -4.800781 C 0.617188 -0.679688 3.980469 0.292969 5.925781 0.292969 C 7.855469 0.292969 11.234375 -0.679688 11.234375 -4.800781 C 11.234375 -8.378906 8.6875 -9.863281 5.925781 -9.863281 Z M 5.925781 0.03125 C 4.183594 0.03125 1.742188 -0.742188 1.742188 -4.800781 C 1.742188 -8.796875 4.429688 -9.613281 5.925781 -9.613281 C 7.421875 -9.613281 10.109375 -8.796875 10.109375 -4.800781 C 10.109375 -0.742188 7.65625 0.03125 5.925781 0.03125 Z M 5.925781 0.03125 "/></g></g></g><g fill="rgb(80.389404%, 90.589905%, 90.979004%)" fill-opacity="1"><g transform="translate(195.550285, 45.220668)"><g><path d="M 8.613281 -9.675781 L 8.363281 -9.675781 L 8.363281 -1.464844 L 0.773438 -9.863281 L 0.742188 -9.863281 L 0.742188 0.015625 L 0.988281 0.015625 L 0.988281 -8.101562 L 8.566406 0.292969 L 8.613281 0.292969 Z M 8.613281 -9.675781 "/></g></g></g><g fill="rgb(80.389404%, 90.589905%, 90.979004%)" fill-opacity="1"><g transform="translate(213.324739, 45.220668)"><g><path d="M 0.386719 -0.710938 L 0.386719 -0.355469 C 0.386719 -0.355469 1.328125 0.402344 2.996094 0.402344 C 4.660156 0.402344 6.25 -0.757812 6.25 -2.46875 C 6.25 -5.925781 1.296875 -4.90625 1.296875 -7.71875 C 1.296875 -8.8125 2.050781 -9.707031 3.378906 -9.707031 C 4.691406 -9.707031 5.539062 -9.074219 5.539062 -9.074219 L 5.523438 -9.398438 C 5.523438 -9.398438 4.597656 -9.96875 3.363281 -9.96875 C 2.144531 -9.96875 0.433594 -9.230469 0.433594 -7.300781 C 0.433594 -3.84375 5.371094 -5.140625 5.371094 -2.082031 C 5.371094 -0.585938 4.230469 0.15625 2.996094 0.15625 C 1.667969 0.15625 0.925781 -0.292969 0.386719 -0.710938 Z M 0.386719 -0.710938 "/></g></g></g></svg>